<?xml version="1.0" encoding="UTF-8" standalone="no"?>
<svg
   width="500"
   zoomAndPan="magnify"
   viewBox="0 0 375 374.999991"
   height="500"
   preserveAspectRatio="xMidYMid meet"
   version="1.0"
   id="svg357"
   sodipodi:docname="arborbook logo.svg"
   inkscape:version="1.2 (dc2aeda, 2022-05-15)"
   xmlns:inkscape="http://www.inkscape.org/namespaces/inkscape"
   xmlns:sodipodi="http://sodipodi.sourceforge.net/DTD/sodipodi-0.dtd"
   xmlns="http://www.w3.org/2000/svg"
   xmlns:svg="http://www.w3.org/2000/svg">
  <sodipodi:namedview
     id="namedview359"
     pagecolor="#505050"
     bordercolor="#eeeeee"
     borderopacity="1"
     inkscape:showpageshadow="0"
     inkscape:pageopacity="0"
     inkscape:pagecheckerboard="0"
     inkscape:deskcolor="#505050"
     showgrid="false"
     inkscape:zoom="0.472"
     inkscape:cx="250"
     inkscape:cy="250"
     inkscape:window-width="1309"
     inkscape:window-height="430"
     inkscape:window-x="0"
     inkscape:window-y="25"
     inkscape:window-maximized="0"
     inkscape:current-layer="svg357" />
  <defs
     id="defs137">
    <g
       id="g132" />
    <clipPath
       id="b5562f343b">
      <path
         d="M 114.191406 72.414062 L 239.441406 72.414062 L 239.441406 222.300781 L 114.191406 222.300781 Z M 114.191406 72.414062 "
         clip-rule="nonzero"
         id="path134" />
    </clipPath>
  </defs>
  <g
     clip-path="url(#b5562f343b)"
     id="g141"
     inkscape:export-filename="arborbooklogo.svg"
     inkscape:export-xdpi="96"
     inkscape:export-ydpi="96">
    <path
       fill="#000000"
       d="M 204.78125 214.113281 C 194.957031 214.28125 185.167969 212.625 175.863281 209.496094 C 169.269531 206.957031 171.085938 204.3125 171.042969 198.804688 C 167.125 191.015625 143.722656 196.910156 134.667969 191.761719 C 127.242188 189.261719 121.132812 180.914062 126.003906 173.453125 C 134.289062 159.644531 150.074219 158.628906 132.390625 142.15625 C 128.207031 137.425781 110.035156 116.835938 123.597656 114.800781 C 139.371094 115.042969 135.738281 105.273438 133.578125 94.042969 C 132.222656 87.417969 133.453125 71.71875 143.539062 78.597656 C 151.476562 83.714844 156.539062 107.640625 168.570312 97.824219 C 174.351562 89.230469 182.238281 75.34375 187.117188 93.679688 C 191.710938 108.859375 186.355469 125.578125 191.894531 140.519531 C 202.859375 156.617188 217.339844 103.566406 216.550781 170.203125 C 216.792969 182.941406 215.347656 196.699219 220.171875 208.71875 C 193.855469 192.070312 174.015625 166.671875 162.777344 137.726562 C 162.035156 136.054688 161.585938 132.53125 158.847656 133.410156 C 157.671875 133.816406 157.085938 135.105469 157.460938 136.273438 C 168.753906 167.320312 190.117188 195.515625 218.339844 212.855469 C 213.910156 213.480469 209.460938 213.902344 204.78125 214.113281 Z M 232.140625 215.273438 C 206.125 208.4375 240.066406 101.371094 196.878906 139.675781 C 188.621094 122.410156 199.816406 97.734375 186.039062 82.070312 C 173.097656 73.042969 168.921875 95.671875 162.703125 95.636719 C 153.957031 89.59375 152.304688 74.53125 140.398438 72.480469 C 130.808594 71.429688 127.925781 82.738281 128.734375 90.320312 C 128.386719 96.21875 132.289062 103.21875 130.621094 108.667969 C 127.996094 111.410156 121.765625 109.152344 118.292969 111.789062 C 105.125 121.617188 127.28125 142.679688 134.183594 150.789062 C 136.121094 153.023438 136.75 155.507812 134.269531 157.632812 C 119.027344 168.816406 112.09375 188.332031 134.050781 196.332031 C 144.53125 200.21875 155.96875 197.855469 166.671875 200.132812 C 161.167969 221.511719 211.707031 220.027344 224.070312 216.171875 C 228.273438 218.460938 232.617188 220.511719 237.085938 222.300781 C 238.304688 222.324219 239.382812 221.421875 239.445312 220.167969 C 239.570312 217.414062 234.128906 216.738281 232.140625 215.273438 "
       fill-opacity="1"
       fill-rule="nonzero"
       id="path139" />
  </g>
  <g
     fill="#008037"
     fill-opacity="1"
     id="g149">
    <g
       transform="translate(85.743993, 262.070472)"
       id="g147">
      <g
         id="g145">
        <path
           d="M 11.234375 -3.328125 L 4.0625 -3.328125 L 2.640625 0 L -0.109375 0 L 6.359375 -14.34375 L 8.984375 -14.34375 L 15.453125 0 L 12.671875 0 Z M 10.359375 -5.40625 L 7.640625 -11.6875 L 4.96875 -5.40625 Z M 10.359375 -5.40625 "
           id="path143" />
      </g>
    </g>
  </g>
  <g
     fill="#008037"
     fill-opacity="1"
     id="g157">
    <g
       transform="translate(108.630931, 262.070472)"
       id="g155">
      <g
         id="g153">
        <path
           d="M 11.3125 0 L 8.390625 -4.203125 C 8.265625 -4.191406 8.078125 -4.1875 7.828125 -4.1875 L 4.59375 -4.1875 L 4.59375 0 L 1.921875 0 L 1.921875 -14.34375 L 7.828125 -14.34375 C 9.078125 -14.34375 10.160156 -14.140625 11.078125 -13.734375 C 12.003906 -13.328125 12.710938 -12.738281 13.203125 -11.96875 C 13.691406 -11.207031 13.9375 -10.300781 13.9375 -9.25 C 13.9375 -8.164062 13.671875 -7.234375 13.140625 -6.453125 C 12.617188 -5.671875 11.867188 -5.09375 10.890625 -4.71875 L 14.1875 0 Z M 11.25 -9.25 C 11.25 -10.164062 10.945312 -10.867188 10.34375 -11.359375 C 9.75 -11.847656 8.867188 -12.09375 7.703125 -12.09375 L 4.59375 -12.09375 L 4.59375 -6.375 L 7.703125 -6.375 C 8.867188 -6.375 9.75 -6.625 10.34375 -7.125 C 10.945312 -7.625 11.25 -8.332031 11.25 -9.25 Z M 11.25 -9.25 "
           id="path151" />
      </g>
    </g>
  </g>
  <g
     fill="#008037"
     fill-opacity="1"
     id="g165">
    <g
       transform="translate(131.149127, 262.070472)"
       id="g163">
      <g
         id="g161">
        <path
           d="M 12.09375 -7.46875 C 12.882812 -7.207031 13.507812 -6.769531 13.96875 -6.15625 C 14.4375 -5.550781 14.671875 -4.796875 14.671875 -3.890625 C 14.671875 -2.648438 14.191406 -1.691406 13.234375 -1.015625 C 12.285156 -0.335938 10.894531 0 9.0625 0 L 1.921875 0 L 1.921875 -14.34375 L 8.65625 -14.34375 C 10.34375 -14.34375 11.644531 -14.007812 12.5625 -13.34375 C 13.476562 -12.6875 13.9375 -11.78125 13.9375 -10.625 C 13.9375 -9.90625 13.769531 -9.269531 13.4375 -8.71875 C 13.113281 -8.175781 12.664062 -7.757812 12.09375 -7.46875 Z M 4.59375 -12.265625 L 4.59375 -8.296875 L 8.359375 -8.296875 C 9.296875 -8.296875 10.007812 -8.460938 10.5 -8.796875 C 11 -9.140625 11.25 -9.628906 11.25 -10.265625 C 11.25 -10.921875 11 -11.414062 10.5 -11.75 C 10.007812 -12.09375 9.296875 -12.265625 8.359375 -12.265625 Z M 8.890625 -2.09375 C 10.960938 -2.09375 12 -2.78125 12 -4.15625 C 12 -5.539062 10.960938 -6.234375 8.890625 -6.234375 L 4.59375 -6.234375 L 4.59375 -2.09375 Z M 8.890625 -2.09375 "
           id="path159" />
      </g>
    </g>
  </g>
  <g
     fill="#008037"
     fill-opacity="1"
     id="g173">
    <g
       transform="translate(154.281895, 262.070472)"
       id="g171">
      <g
         id="g169">
        <path
           d="M 8.625 0.203125 C 7.164062 0.203125 5.847656 -0.113281 4.671875 -0.75 C 3.492188 -1.382812 2.570312 -2.265625 1.90625 -3.390625 C 1.238281 -4.515625 0.90625 -5.773438 0.90625 -7.171875 C 0.90625 -8.566406 1.238281 -9.828125 1.90625 -10.953125 C 2.570312 -12.085938 3.492188 -12.972656 4.671875 -13.609375 C 5.847656 -14.242188 7.164062 -14.5625 8.625 -14.5625 C 10.09375 -14.5625 11.410156 -14.242188 12.578125 -13.609375 C 13.753906 -12.972656 14.675781 -12.09375 15.34375 -10.96875 C 16.019531 -9.84375 16.359375 -8.578125 16.359375 -7.171875 C 16.359375 -5.765625 16.019531 -4.5 15.34375 -3.375 C 14.675781 -2.257812 13.753906 -1.382812 12.578125 -0.75 C 11.410156 -0.113281 10.09375 0.203125 8.625 0.203125 Z M 8.625 -2.125 C 9.582031 -2.125 10.441406 -2.335938 11.203125 -2.765625 C 11.972656 -3.203125 12.578125 -3.804688 13.015625 -4.578125 C 13.453125 -5.347656 13.671875 -6.210938 13.671875 -7.171875 C 13.671875 -8.128906 13.453125 -8.992188 13.015625 -9.765625 C 12.578125 -10.535156 11.972656 -11.132812 11.203125 -11.5625 C 10.441406 -12 9.582031 -12.21875 8.625 -12.21875 C 7.675781 -12.21875 6.816406 -12 6.046875 -11.5625 C 5.285156 -11.132812 4.6875 -10.535156 4.25 -9.765625 C 3.8125 -8.992188 3.59375 -8.128906 3.59375 -7.171875 C 3.59375 -6.210938 3.8125 -5.347656 4.25 -4.578125 C 4.6875 -3.804688 5.285156 -3.203125 6.046875 -2.765625 C 6.816406 -2.335938 7.675781 -2.125 8.625 -2.125 Z M 8.625 -2.125 "
           id="path167" />
      </g>
    </g>
  </g>
  <g
     fill="#008037"
     fill-opacity="1"
     id="g181">
    <g
       transform="translate(179.074004, 262.070472)"
       id="g179">
      <g
         id="g177">
        <path
           d="M 11.3125 0 L 8.390625 -4.203125 C 8.265625 -4.191406 8.078125 -4.1875 7.828125 -4.1875 L 4.59375 -4.1875 L 4.59375 0 L 1.921875 0 L 1.921875 -14.34375 L 7.828125 -14.34375 C 9.078125 -14.34375 10.160156 -14.140625 11.078125 -13.734375 C 12.003906 -13.328125 12.710938 -12.738281 13.203125 -11.96875 C 13.691406 -11.207031 13.9375 -10.300781 13.9375 -9.25 C 13.9375 -8.164062 13.671875 -7.234375 13.140625 -6.453125 C 12.617188 -5.671875 11.867188 -5.09375 10.890625 -4.71875 L 14.1875 0 Z M 11.25 -9.25 C 11.25 -10.164062 10.945312 -10.867188 10.34375 -11.359375 C 9.75 -11.847656 8.867188 -12.09375 7.703125 -12.09375 L 4.59375 -12.09375 L 4.59375 -6.375 L 7.703125 -6.375 C 8.867188 -6.375 9.75 -6.625 10.34375 -7.125 C 10.945312 -7.625 11.25 -8.332031 11.25 -9.25 Z M 11.25 -9.25 "
           id="path175" />
      </g>
    </g>
  </g>
  <g
     fill="#008037"
     fill-opacity="1"
     id="g189">
    <g
       transform="translate(201.592205, 262.070472)"
       id="g187">
      <g
         id="g185">
        <path
           d="M 12.09375 -7.46875 C 12.882812 -7.207031 13.507812 -6.769531 13.96875 -6.15625 C 14.4375 -5.550781 14.671875 -4.796875 14.671875 -3.890625 C 14.671875 -2.648438 14.191406 -1.691406 13.234375 -1.015625 C 12.285156 -0.335938 10.894531 0 9.0625 0 L 1.921875 0 L 1.921875 -14.34375 L 8.65625 -14.34375 C 10.34375 -14.34375 11.644531 -14.007812 12.5625 -13.34375 C 13.476562 -12.6875 13.9375 -11.78125 13.9375 -10.625 C 13.9375 -9.90625 13.769531 -9.269531 13.4375 -8.71875 C 13.113281 -8.175781 12.664062 -7.757812 12.09375 -7.46875 Z M 4.59375 -12.265625 L 4.59375 -8.296875 L 8.359375 -8.296875 C 9.296875 -8.296875 10.007812 -8.460938 10.5 -8.796875 C 11 -9.140625 11.25 -9.628906 11.25 -10.265625 C 11.25 -10.921875 11 -11.414062 10.5 -11.75 C 10.007812 -12.09375 9.296875 -12.265625 8.359375 -12.265625 Z M 8.890625 -2.09375 C 10.960938 -2.09375 12 -2.78125 12 -4.15625 C 12 -5.539062 10.960938 -6.234375 8.890625 -6.234375 L 4.59375 -6.234375 L 4.59375 -2.09375 Z M 8.890625 -2.09375 "
           id="path183" />
      </g>
    </g>
  </g>
  <g
     fill="#008037"
     fill-opacity="1"
     id="g197">
    <g
       transform="translate(224.724979, 262.070472)"
       id="g195">
      <g
         id="g193">
        <path
           d="M 8.625 0.203125 C 7.164062 0.203125 5.847656 -0.113281 4.671875 -0.75 C 3.492188 -1.382812 2.570312 -2.265625 1.90625 -3.390625 C 1.238281 -4.515625 0.90625 -5.773438 0.90625 -7.171875 C 0.90625 -8.566406 1.238281 -9.828125 1.90625 -10.953125 C 2.570312 -12.085938 3.492188 -12.972656 4.671875 -13.609375 C 5.847656 -14.242188 7.164062 -14.5625 8.625 -14.5625 C 10.09375 -14.5625 11.410156 -14.242188 12.578125 -13.609375 C 13.753906 -12.972656 14.675781 -12.09375 15.34375 -10.96875 C 16.019531 -9.84375 16.359375 -8.578125 16.359375 -7.171875 C 16.359375 -5.765625 16.019531 -4.5 15.34375 -3.375 C 14.675781 -2.257812 13.753906 -1.382812 12.578125 -0.75 C 11.410156 -0.113281 10.09375 0.203125 8.625 0.203125 Z M 8.625 -2.125 C 9.582031 -2.125 10.441406 -2.335938 11.203125 -2.765625 C 11.972656 -3.203125 12.578125 -3.804688 13.015625 -4.578125 C 13.453125 -5.347656 13.671875 -6.210938 13.671875 -7.171875 C 13.671875 -8.128906 13.453125 -8.992188 13.015625 -9.765625 C 12.578125 -10.535156 11.972656 -11.132812 11.203125 -11.5625 C 10.441406 -12 9.582031 -12.21875 8.625 -12.21875 C 7.675781 -12.21875 6.816406 -12 6.046875 -11.5625 C 5.285156 -11.132812 4.6875 -10.535156 4.25 -9.765625 C 3.8125 -8.992188 3.59375 -8.128906 3.59375 -7.171875 C 3.59375 -6.210938 3.8125 -5.347656 4.25 -4.578125 C 4.6875 -3.804688 5.285156 -3.203125 6.046875 -2.765625 C 6.816406 -2.335938 7.675781 -2.125 8.625 -2.125 Z M 8.625 -2.125 "
           id="path191" />
      </g>
    </g>
  </g>
  <g
     fill="#008037"
     fill-opacity="1"
     id="g205">
    <g
       transform="translate(249.517095, 262.070472)"
       id="g203">
      <g
         id="g201">
        <path
           d="M 8.625 0.203125 C 7.164062 0.203125 5.847656 -0.113281 4.671875 -0.75 C 3.492188 -1.382812 2.570312 -2.265625 1.90625 -3.390625 C 1.238281 -4.515625 0.90625 -5.773438 0.90625 -7.171875 C 0.90625 -8.566406 1.238281 -9.828125 1.90625 -10.953125 C 2.570312 -12.085938 3.492188 -12.972656 4.671875 -13.609375 C 5.847656 -14.242188 7.164062 -14.5625 8.625 -14.5625 C 10.09375 -14.5625 11.410156 -14.242188 12.578125 -13.609375 C 13.753906 -12.972656 14.675781 -12.09375 15.34375 -10.96875 C 16.019531 -9.84375 16.359375 -8.578125 16.359375 -7.171875 C 16.359375 -5.765625 16.019531 -4.5 15.34375 -3.375 C 14.675781 -2.257812 13.753906 -1.382812 12.578125 -0.75 C 11.410156 -0.113281 10.09375 0.203125 8.625 0.203125 Z M 8.625 -2.125 C 9.582031 -2.125 10.441406 -2.335938 11.203125 -2.765625 C 11.972656 -3.203125 12.578125 -3.804688 13.015625 -4.578125 C 13.453125 -5.347656 13.671875 -6.210938 13.671875 -7.171875 C 13.671875 -8.128906 13.453125 -8.992188 13.015625 -9.765625 C 12.578125 -10.535156 11.972656 -11.132812 11.203125 -11.5625 C 10.441406 -12 9.582031 -12.21875 8.625 -12.21875 C 7.675781 -12.21875 6.816406 -12 6.046875 -11.5625 C 5.285156 -11.132812 4.6875 -10.535156 4.25 -9.765625 C 3.8125 -8.992188 3.59375 -8.128906 3.59375 -7.171875 C 3.59375 -6.210938 3.8125 -5.347656 4.25 -4.578125 C 4.6875 -3.804688 5.285156 -3.203125 6.046875 -2.765625 C 6.816406 -2.335938 7.675781 -2.125 8.625 -2.125 Z M 8.625 -2.125 "
           id="path199" />
      </g>
    </g>
  </g>
  <g
     fill="#008037"
     fill-opacity="1"
     id="g213">
    <g
       transform="translate(274.30921, 262.070472)"
       id="g211">
      <g
         id="g209">
        <path
           d="M 6.875 -6 L 4.59375 -3.671875 L 4.59375 0 L 1.921875 0 L 1.921875 -14.34375 L 4.59375 -14.34375 L 4.59375 -6.984375 L 11.6875 -14.34375 L 14.671875 -14.34375 L 8.65625 -7.9375 L 15.046875 0 L 11.9375 0 Z M 6.875 -6 "
           id="path207" />
      </g>
    </g>
  </g>
  <g
     fill="#579e39"
     fill-opacity="1"
     id="g221">
    <g
       transform="translate(93.768006, 285.020864)"
       id="g219">
      <g
         id="g217">
        <path
           d="M 5.703125 -1.6875 L 2.0625 -1.6875 L 1.34375 0 L -0.046875 0 L 3.21875 -7.28125 L 4.5625 -7.28125 L 7.84375 0 L 6.4375 0 Z M 5.25 -2.75 L 3.875 -5.9375 L 2.515625 -2.75 Z M 5.25 -2.75 "
           id="path215" />
      </g>
    </g>
  </g>
  <g
     fill="#579e39"
     fill-opacity="1"
     id="g229">
    <g
       transform="translate(105.397307, 285.020864)"
       id="g227">
      <g
         id="g225">
        <path
           d="M 5.75 0 L 4.25 -2.140625 C 4.1875 -2.128906 4.09375 -2.125 3.96875 -2.125 L 2.328125 -2.125 L 2.328125 0 L 0.984375 0 L 0.984375 -7.28125 L 3.96875 -7.28125 C 4.601562 -7.28125 5.15625 -7.175781 5.625 -6.96875 C 6.09375 -6.757812 6.453125 -6.460938 6.703125 -6.078125 C 6.953125 -5.691406 7.078125 -5.226562 7.078125 -4.6875 C 7.078125 -4.144531 6.941406 -3.675781 6.671875 -3.28125 C 6.410156 -2.882812 6.03125 -2.585938 5.53125 -2.390625 L 7.203125 0 Z M 5.71875 -4.6875 C 5.71875 -5.15625 5.5625 -5.515625 5.25 -5.765625 C 4.945312 -6.015625 4.5 -6.140625 3.90625 -6.140625 L 2.328125 -6.140625 L 2.328125 -3.234375 L 3.90625 -3.234375 C 4.5 -3.234375 4.945312 -3.359375 5.25 -3.609375 C 5.5625 -3.867188 5.71875 -4.226562 5.71875 -4.6875 Z M 5.71875 -4.6875 "
           id="path223" />
      </g>
    </g>
  </g>
  <g
     fill="#579e39"
     fill-opacity="1"
     id="g237">
    <g
       transform="translate(116.839242, 285.020864)"
       id="g235">
      <g
         id="g233">
        <path
           d="M 6.140625 -3.78125 C 6.546875 -3.65625 6.863281 -3.4375 7.09375 -3.125 C 7.332031 -2.8125 7.453125 -2.429688 7.453125 -1.984375 C 7.453125 -1.347656 7.207031 -0.859375 6.71875 -0.515625 C 6.238281 -0.171875 5.53125 0 4.59375 0 L 0.984375 0 L 0.984375 -7.28125 L 4.390625 -7.28125 C 5.253906 -7.28125 5.914062 -7.113281 6.375 -6.78125 C 6.84375 -6.445312 7.078125 -5.984375 7.078125 -5.390625 C 7.078125 -5.023438 6.992188 -4.703125 6.828125 -4.421875 C 6.660156 -4.148438 6.429688 -3.9375 6.140625 -3.78125 Z M 2.328125 -6.21875 L 2.328125 -4.21875 L 4.25 -4.21875 C 4.71875 -4.21875 5.078125 -4.300781 5.328125 -4.46875 C 5.585938 -4.632812 5.71875 -4.882812 5.71875 -5.21875 C 5.71875 -5.550781 5.585938 -5.800781 5.328125 -5.96875 C 5.078125 -6.132812 4.71875 -6.21875 4.25 -6.21875 Z M 4.515625 -1.0625 C 5.566406 -1.0625 6.09375 -1.410156 6.09375 -2.109375 C 6.09375 -2.804688 5.566406 -3.15625 4.515625 -3.15625 L 2.328125 -3.15625 L 2.328125 -1.0625 Z M 4.515625 -1.0625 "
           id="path231" />
      </g>
    </g>
  </g>
  <g
     fill="#579e39"
     fill-opacity="1"
     id="g245">
    <g
       transform="translate(128.593453, 285.020864)"
       id="g243">
      <g
         id="g241">
        <path
           d="M 4.375 0.109375 C 3.632812 0.109375 2.96875 -0.0507812 2.375 -0.375 C 1.78125 -0.695312 1.3125 -1.144531 0.96875 -1.71875 C 0.625 -2.289062 0.453125 -2.929688 0.453125 -3.640625 C 0.453125 -4.347656 0.625 -4.988281 0.96875 -5.5625 C 1.3125 -6.132812 1.78125 -6.582031 2.375 -6.90625 C 2.96875 -7.226562 3.632812 -7.390625 4.375 -7.390625 C 5.125 -7.390625 5.796875 -7.226562 6.390625 -6.90625 C 6.984375 -6.582031 7.445312 -6.132812 7.78125 -5.5625 C 8.125 -5 8.296875 -4.359375 8.296875 -3.640625 C 8.296875 -2.929688 8.125 -2.289062 7.78125 -1.71875 C 7.445312 -1.144531 6.984375 -0.695312 6.390625 -0.375 C 5.796875 -0.0507812 5.125 0.109375 4.375 0.109375 Z M 4.375 -1.078125 C 4.863281 -1.078125 5.300781 -1.1875 5.6875 -1.40625 C 6.082031 -1.625 6.390625 -1.925781 6.609375 -2.3125 C 6.828125 -2.707031 6.9375 -3.148438 6.9375 -3.640625 C 6.9375 -4.128906 6.828125 -4.566406 6.609375 -4.953125 C 6.390625 -5.347656 6.082031 -5.65625 5.6875 -5.875 C 5.300781 -6.09375 4.863281 -6.203125 4.375 -6.203125 C 3.894531 -6.203125 3.457031 -6.09375 3.0625 -5.875 C 2.675781 -5.65625 2.375 -5.347656 2.15625 -4.953125 C 1.9375 -4.566406 1.828125 -4.128906 1.828125 -3.640625 C 1.828125 -3.148438 1.9375 -2.707031 2.15625 -2.3125 C 2.375 -1.925781 2.675781 -1.625 3.0625 -1.40625 C 3.457031 -1.1875 3.894531 -1.078125 4.375 -1.078125 Z M 4.375 -1.078125 "
           id="path239" />
      </g>
    </g>
  </g>
  <g
     fill="#579e39"
     fill-opacity="1"
     id="g253">
    <g
       transform="translate(141.190808, 285.020864)"
       id="g251">
      <g
         id="g249">
        <path
           d="M 5.75 0 L 4.25 -2.140625 C 4.1875 -2.128906 4.09375 -2.125 3.96875 -2.125 L 2.328125 -2.125 L 2.328125 0 L 0.984375 0 L 0.984375 -7.28125 L 3.96875 -7.28125 C 4.601562 -7.28125 5.15625 -7.175781 5.625 -6.96875 C 6.09375 -6.757812 6.453125 -6.460938 6.703125 -6.078125 C 6.953125 -5.691406 7.078125 -5.226562 7.078125 -4.6875 C 7.078125 -4.144531 6.941406 -3.675781 6.671875 -3.28125 C 6.410156 -2.882812 6.03125 -2.585938 5.53125 -2.390625 L 7.203125 0 Z M 5.71875 -4.6875 C 5.71875 -5.15625 5.5625 -5.515625 5.25 -5.765625 C 4.945312 -6.015625 4.5 -6.140625 3.90625 -6.140625 L 2.328125 -6.140625 L 2.328125 -3.234375 L 3.90625 -3.234375 C 4.5 -3.234375 4.945312 -3.359375 5.25 -3.609375 C 5.5625 -3.867188 5.71875 -4.226562 5.71875 -4.6875 Z M 5.71875 -4.6875 "
           id="path247" />
      </g>
    </g>
  </g>
  <g
     fill="#579e39"
     fill-opacity="1"
     id="g261">
    <g
       transform="translate(152.632746, 285.020864)"
       id="g259">
      <g
         id="g257">
        <path
           d="M 0.984375 -7.28125 L 2.328125 -7.28125 L 2.328125 0 L 0.984375 0 Z M 0.984375 -7.28125 "
           id="path255" />
      </g>
    </g>
  </g>
  <g
     fill="#579e39"
     fill-opacity="1"
     id="g269">
    <g
       transform="translate(159.786107, 285.020864)"
       id="g267">
      <g
         id="g265">
        <path
           d="M 3.234375 0.109375 C 2.671875 0.109375 2.128906 0.03125 1.609375 -0.125 C 1.085938 -0.289062 0.671875 -0.503906 0.359375 -0.765625 L 0.828125 -1.828125 C 1.128906 -1.585938 1.492188 -1.390625 1.921875 -1.234375 C 2.359375 -1.085938 2.796875 -1.015625 3.234375 -1.015625 C 3.773438 -1.015625 4.175781 -1.101562 4.4375 -1.28125 C 4.707031 -1.457031 4.84375 -1.6875 4.84375 -1.96875 C 4.84375 -2.175781 4.769531 -2.347656 4.625 -2.484375 C 4.476562 -2.617188 4.289062 -2.722656 4.0625 -2.796875 C 3.832031 -2.867188 3.519531 -2.957031 3.125 -3.0625 C 2.570312 -3.1875 2.125 -3.316406 1.78125 -3.453125 C 1.4375 -3.585938 1.140625 -3.796875 0.890625 -4.078125 C 0.640625 -4.359375 0.515625 -4.738281 0.515625 -5.21875 C 0.515625 -5.613281 0.625 -5.976562 0.84375 -6.3125 C 1.0625 -6.644531 1.390625 -6.90625 1.828125 -7.09375 C 2.273438 -7.289062 2.816406 -7.390625 3.453125 -7.390625 C 3.898438 -7.390625 4.335938 -7.332031 4.765625 -7.21875 C 5.191406 -7.113281 5.5625 -6.957031 5.875 -6.75 L 5.453125 -5.6875 C 5.128906 -5.875 4.796875 -6.015625 4.453125 -6.109375 C 4.109375 -6.210938 3.769531 -6.265625 3.4375 -6.265625 C 2.90625 -6.265625 2.507812 -6.171875 2.25 -5.984375 C 1.988281 -5.804688 1.859375 -5.570312 1.859375 -5.28125 C 1.859375 -5.070312 1.929688 -4.898438 2.078125 -4.765625 C 2.234375 -4.628906 2.425781 -4.523438 2.65625 -4.453125 C 2.882812 -4.378906 3.195312 -4.289062 3.59375 -4.1875 C 4.132812 -4.0625 4.578125 -3.929688 4.921875 -3.796875 C 5.265625 -3.660156 5.5625 -3.453125 5.8125 -3.171875 C 6.0625 -2.898438 6.1875 -2.53125 6.1875 -2.0625 C 6.1875 -1.65625 6.078125 -1.289062 5.859375 -0.96875 C 5.640625 -0.644531 5.304688 -0.382812 4.859375 -0.1875 C 4.410156 0.0078125 3.867188 0.109375 3.234375 0.109375 Z M 3.234375 0.109375 "
           id="path263" />
      </g>
    </g>
  </g>
  <g
     fill="#579e39"
     fill-opacity="1"
     id="g277">
    <g
       transform="translate(170.166305, 285.020864)"
       id="g275">
      <g
         id="g273">
        <path
           d="M 2.453125 -6.140625 L 0.046875 -6.140625 L 0.046875 -7.28125 L 6.21875 -7.28125 L 6.21875 -6.140625 L 3.8125 -6.140625 L 3.8125 0 L 2.453125 0 Z M 2.453125 -6.140625 "
           id="path271" />
      </g>
    </g>
  </g>
  <g
     fill="#579e39"
     fill-opacity="1"
     id="g283">
    <g
       transform="translate(180.265462, 285.020864)"
       id="g281">
      <g
         id="g279" />
    </g>
  </g>
  <g
     fill="#579e39"
     fill-opacity="1"
     id="g291">
    <g
       transform="translate(186.971228, 285.020864)"
       id="g289">
      <g
         id="g287">
        <path
           d="M 0.984375 -7.28125 L 4.15625 -7.28125 C 4.9375 -7.28125 5.628906 -7.128906 6.234375 -6.828125 C 6.835938 -6.523438 7.304688 -6.097656 7.640625 -5.546875 C 7.972656 -4.992188 8.140625 -4.359375 8.140625 -3.640625 C 8.140625 -2.921875 7.972656 -2.285156 7.640625 -1.734375 C 7.304688 -1.179688 6.835938 -0.753906 6.234375 -0.453125 C 5.628906 -0.148438 4.9375 0 4.15625 0 L 0.984375 0 Z M 4.09375 -1.140625 C 4.632812 -1.140625 5.109375 -1.242188 5.515625 -1.453125 C 5.921875 -1.660156 6.234375 -1.953125 6.453125 -2.328125 C 6.671875 -2.703125 6.78125 -3.140625 6.78125 -3.640625 C 6.78125 -4.140625 6.671875 -4.578125 6.453125 -4.953125 C 6.234375 -5.335938 5.921875 -5.628906 5.515625 -5.828125 C 5.109375 -6.035156 4.632812 -6.140625 4.09375 -6.140625 L 2.328125 -6.140625 L 2.328125 -1.140625 Z M 4.09375 -1.140625 "
           id="path285" />
      </g>
    </g>
  </g>
  <g
     fill="#579e39"
     fill-opacity="1"
     id="g299">
    <g
       transform="translate(199.402031, 285.020864)"
       id="g297">
      <g
         id="g295">
        <path
           d="M 0.984375 -7.28125 L 2.328125 -7.28125 L 2.328125 0 L 0.984375 0 Z M 0.984375 -7.28125 "
           id="path293" />
      </g>
    </g>
  </g>
  <g
     fill="#579e39"
     fill-opacity="1"
     id="g307">
    <g
       transform="translate(206.555392, 285.020864)"
       id="g305">
      <g
         id="g303">
        <path
           d="M 5.75 0 L 4.25 -2.140625 C 4.1875 -2.128906 4.09375 -2.125 3.96875 -2.125 L 2.328125 -2.125 L 2.328125 0 L 0.984375 0 L 0.984375 -7.28125 L 3.96875 -7.28125 C 4.601562 -7.28125 5.15625 -7.175781 5.625 -6.96875 C 6.09375 -6.757812 6.453125 -6.460938 6.703125 -6.078125 C 6.953125 -5.691406 7.078125 -5.226562 7.078125 -4.6875 C 7.078125 -4.144531 6.941406 -3.675781 6.671875 -3.28125 C 6.410156 -2.882812 6.03125 -2.585938 5.53125 -2.390625 L 7.203125 0 Z M 5.71875 -4.6875 C 5.71875 -5.15625 5.5625 -5.515625 5.25 -5.765625 C 4.945312 -6.015625 4.5 -6.140625 3.90625 -6.140625 L 2.328125 -6.140625 L 2.328125 -3.234375 L 3.90625 -3.234375 C 4.5 -3.234375 4.945312 -3.359375 5.25 -3.609375 C 5.5625 -3.867188 5.71875 -4.226562 5.71875 -4.6875 Z M 5.71875 -4.6875 "
           id="path301" />
      </g>
    </g>
  </g>
  <g
     fill="#579e39"
     fill-opacity="1"
     id="g315">
    <g
       transform="translate(217.997324, 285.020864)"
       id="g313">
      <g
         id="g311">
        <path
           d="M 6.4375 -1.140625 L 6.4375 0 L 0.984375 0 L 0.984375 -7.28125 L 6.296875 -7.28125 L 6.296875 -6.15625 L 2.328125 -6.15625 L 2.328125 -4.25 L 5.84375 -4.25 L 5.84375 -3.140625 L 2.328125 -3.140625 L 2.328125 -1.140625 Z M 6.4375 -1.140625 "
           id="path309" />
      </g>
    </g>
  </g>
  <g
     fill="#579e39"
     fill-opacity="1"
     id="g323">
    <g
       transform="translate(228.8043, 285.020864)"
       id="g321">
      <g
         id="g319">
        <path
           d="M 4.34375 0.109375 C 3.613281 0.109375 2.953125 -0.0507812 2.359375 -0.375 C 1.765625 -0.695312 1.296875 -1.144531 0.953125 -1.71875 C 0.617188 -2.289062 0.453125 -2.929688 0.453125 -3.640625 C 0.453125 -4.359375 0.625 -5 0.96875 -5.5625 C 1.3125 -6.132812 1.773438 -6.582031 2.359375 -6.90625 C 2.953125 -7.226562 3.617188 -7.390625 4.359375 -7.390625 C 4.953125 -7.390625 5.492188 -7.285156 5.984375 -7.078125 C 6.484375 -6.867188 6.90625 -6.566406 7.25 -6.171875 L 6.375 -5.34375 C 5.84375 -5.914062 5.191406 -6.203125 4.421875 -6.203125 C 3.921875 -6.203125 3.472656 -6.09375 3.078125 -5.875 C 2.679688 -5.65625 2.375 -5.347656 2.15625 -4.953125 C 1.9375 -4.566406 1.828125 -4.128906 1.828125 -3.640625 C 1.828125 -3.148438 1.9375 -2.707031 2.15625 -2.3125 C 2.375 -1.925781 2.679688 -1.625 3.078125 -1.40625 C 3.472656 -1.1875 3.921875 -1.078125 4.421875 -1.078125 C 5.191406 -1.078125 5.84375 -1.367188 6.375 -1.953125 L 7.25 -1.109375 C 6.90625 -0.710938 6.484375 -0.410156 5.984375 -0.203125 C 5.492188 0.00390625 4.945312 0.109375 4.34375 0.109375 Z M 4.34375 0.109375 "
           id="path317" />
      </g>
    </g>
  </g>
  <g
     fill="#579e39"
     fill-opacity="1"
     id="g331">
    <g
       transform="translate(240.204599, 285.020864)"
       id="g329">
      <g
         id="g327">
        <path
           d="M 2.453125 -6.140625 L 0.046875 -6.140625 L 0.046875 -7.28125 L 6.21875 -7.28125 L 6.21875 -6.140625 L 3.8125 -6.140625 L 3.8125 0 L 2.453125 0 Z M 2.453125 -6.140625 "
           id="path325" />
      </g>
    </g>
  </g>
  <g
     fill="#579e39"
     fill-opacity="1"
     id="g339">
    <g
       transform="translate(250.303757, 285.020864)"
       id="g337">
      <g
         id="g335">
        <path
           d="M 4.375 0.109375 C 3.632812 0.109375 2.96875 -0.0507812 2.375 -0.375 C 1.78125 -0.695312 1.3125 -1.144531 0.96875 -1.71875 C 0.625 -2.289062 0.453125 -2.929688 0.453125 -3.640625 C 0.453125 -4.347656 0.625 -4.988281 0.96875 -5.5625 C 1.3125 -6.132812 1.78125 -6.582031 2.375 -6.90625 C 2.96875 -7.226562 3.632812 -7.390625 4.375 -7.390625 C 5.125 -7.390625 5.796875 -7.226562 6.390625 -6.90625 C 6.984375 -6.582031 7.445312 -6.132812 7.78125 -5.5625 C 8.125 -5 8.296875 -4.359375 8.296875 -3.640625 C 8.296875 -2.929688 8.125 -2.289062 7.78125 -1.71875 C 7.445312 -1.144531 6.984375 -0.695312 6.390625 -0.375 C 5.796875 -0.0507812 5.125 0.109375 4.375 0.109375 Z M 4.375 -1.078125 C 4.863281 -1.078125 5.300781 -1.1875 5.6875 -1.40625 C 6.082031 -1.625 6.390625 -1.925781 6.609375 -2.3125 C 6.828125 -2.707031 6.9375 -3.148438 6.9375 -3.640625 C 6.9375 -4.128906 6.828125 -4.566406 6.609375 -4.953125 C 6.390625 -5.347656 6.082031 -5.65625 5.6875 -5.875 C 5.300781 -6.09375 4.863281 -6.203125 4.375 -6.203125 C 3.894531 -6.203125 3.457031 -6.09375 3.0625 -5.875 C 2.675781 -5.65625 2.375 -5.347656 2.15625 -4.953125 C 1.9375 -4.566406 1.828125 -4.128906 1.828125 -3.640625 C 1.828125 -3.148438 1.9375 -2.707031 2.15625 -2.3125 C 2.375 -1.925781 2.675781 -1.625 3.0625 -1.40625 C 3.457031 -1.1875 3.894531 -1.078125 4.375 -1.078125 Z M 4.375 -1.078125 "
           id="path333" />
      </g>
    </g>
  </g>
  <g
     fill="#579e39"
     fill-opacity="1"
     id="g347">
    <g
       transform="translate(262.901115, 285.020864)"
       id="g345">
      <g
         id="g343">
        <path
           d="M 5.75 0 L 4.25 -2.140625 C 4.1875 -2.128906 4.09375 -2.125 3.96875 -2.125 L 2.328125 -2.125 L 2.328125 0 L 0.984375 0 L 0.984375 -7.28125 L 3.96875 -7.28125 C 4.601562 -7.28125 5.15625 -7.175781 5.625 -6.96875 C 6.09375 -6.757812 6.453125 -6.460938 6.703125 -6.078125 C 6.953125 -5.691406 7.078125 -5.226562 7.078125 -4.6875 C 7.078125 -4.144531 6.941406 -3.675781 6.671875 -3.28125 C 6.410156 -2.882812 6.03125 -2.585938 5.53125 -2.390625 L 7.203125 0 Z M 5.71875 -4.6875 C 5.71875 -5.15625 5.5625 -5.515625 5.25 -5.765625 C 4.945312 -6.015625 4.5 -6.140625 3.90625 -6.140625 L 2.328125 -6.140625 L 2.328125 -3.234375 L 3.90625 -3.234375 C 4.5 -3.234375 4.945312 -3.359375 5.25 -3.609375 C 5.5625 -3.867188 5.71875 -4.226562 5.71875 -4.6875 Z M 5.71875 -4.6875 "
           id="path341" />
      </g>
    </g>
  </g>
  <g
     fill="#579e39"
     fill-opacity="1"
     id="g355">
    <g
       transform="translate(274.343047, 285.020864)"
       id="g353">
      <g
         id="g351">
        <path
           d="M 4.125 -2.578125 L 4.125 0 L 2.765625 0 L 2.765625 -2.546875 L -0.09375 -7.28125 L 1.359375 -7.28125 L 3.484375 -3.734375 L 5.640625 -7.28125 L 6.96875 -7.28125 Z M 4.125 -2.578125 "
           id="path349" />
      </g>
    </g>
  </g>
</svg>
