<?xml version="1.0" encoding="UTF-8" standalone="no"?>
<svg
   width="291.34012"
   zoomAndPan="magnify"
   viewBox="0 0 218.50509 213.02361"
   height="284.03149"
   preserveAspectRatio="xMidYMid"
   version="1.0"
   id="svg366"
   xmlns="http://www.w3.org/2000/svg"
   xmlns:svg="http://www.w3.org/2000/svg">
  <defs
     id="defs140">
    <clipPath
       id="a01ea729ba">
      <path
         d="m 199.30078,80.648438 h 47.08203 V 239.94922 h -47.08203 z m 0,0"
         clip-rule="nonzero"
         id="path134" />
    </clipPath>
    <clipPath
       id="c57c7300b6">
      <path
         d="m 162,121 h 36 v 118.96094 h -36 z m 0,0"
         clip-rule="nonzero"
         id="path137" />
    </clipPath>
  </defs>
  <g
     clip-path="url(#a01ea729ba)"
     id="g144"
     transform="translate(-78.2471,-80.648438)">
    <path
       fill="#000000"
       d="m 221.92578,95.382812 c -0.15234,1.035157 -0.14062,2.105469 -0.16016,3.148438 -0.17187,8.27344 -0.10937,7.26172 2.28516,8.94141 5.78125,4.05859 11.56641,8.11718 17.35547,12.17968 0.39062,0.27344 0.77734,0.55079 1.16016,0.83985 0.35546,0.26953 0.58984,0.61328 0.53515,1.08594 -0.043,0.35937 -0.23828,0.52343 -1.00781,0.8789 -0.70313,-0.12109 -1.21484,-0.61328 -1.77344,-1.00781 -19.17969,-13.42969 -17.78125,-12.55078 -18.23047,-12.69922 -0.64843,0.32031 -0.30078,6.48047 -0.16797,6.77734 0.26172,0.58594 -0.45312,-0.10546 23.04297,18.48438 0.41407,0.32812 0.82422,0.67578 1.17969,1.0664 0.33203,0.36329 0.30078,0.80079 0.0117,1.16797 -0.26953,0.34375 -0.70313,0.46094 -1.14063,0.32032 -0.46875,-0.15625 -0.80468,-0.50782 -1.17968,-0.80079 -3.88282,-3.05859 -7.75782,-6.125 -11.63672,-9.1914 -10.62891,-8.40234 -9.79297,-7.80469 -10.1875,-7.87891 -0.34375,0.92578 -0.42578,3.84375 -0.21094,7.81641 1.98828,2.10937 4.12109,4.17578 6.39453,6.09375 0.60547,0.51562 1.2461,0.99609 1.83203,1.53515 0.35157,0.31641 0.66016,0.69141 0.9375,1.07813 0.33594,0.47266 0.34375,0.99609 0.0391,1.5 -0.30469,0.50781 -1.03907,0.65234 -1.34375,0.18359 -0.98829,-1.51953 -2.56641,-2.375 -3.83204,-3.57422 -1.27343,-1.19921 -2.5,-2.45312 -3.71484,-3.65234 -0.33984,0.0547 -0.37109,0.25391 -0.37109,0.46875 0.0195,17.97266 -0.63282,14.41797 2.67578,16.62891 5.34375,3.57422 10.6875,7.14453 16.03125,10.72265 0.39453,0.26563 0.78906,0.53907 1.13672,0.86328 0.33593,0.31641 0.35547,0.8086 0.125,1.17188 -0.26563,0.42578 -0.75782,0.60547 -1.24219,0.37109 -0.47266,-0.23047 -0.92188,-0.51953 -1.36328,-0.8164 -5.25781,-3.51172 -10.51172,-7.02735 -15.76953,-10.53907 -0.42969,-0.28515 -0.82813,-0.64843 -1.38672,-0.78515 -0.33985,0.38281 -0.21485,0.82812 -0.21485,1.22656 -0.0156,4.46484 -0.0156,8.9375 -0.0195,13.40625 -0.0234,25.05469 -0.043,50.10938 -0.0664,75.16797 0,0.42578 0.0156,0.85156 -0.0195,1.27344 -0.0508,0.66797 -0.40235,1.07031 -0.92579,1.10937 -0.5625,0.043 -0.99609,-0.40625 -1.0664,-1.14062 -0.0352,-0.3711 -0.0195,-0.7461 -0.0195,-1.11719 0.0117,-20.42969 0.0234,-40.85547 0.0352,-61.28516 0.008,-8.61718 0.0156,-17.23437 0.0195,-25.85547 0,-0.45312 -0.0391,-0.90625 -0.0586,-1.34375 -0.41797,-0.0352 -0.55859,0.22657 -0.74609,0.39844 -1.69922,1.60547 -3.39453,3.21485 -5.08985,4.82813 -2.04297,1.9375 -4.08203,3.88672 -6.1289,5.82031 -0.30469,0.28906 -0.63282,0.57031 -0.99219,0.78516 -0.36719,0.21875 -0.89063,0.0781 -1.16406,-0.23438 -0.27735,-0.32031 -0.33985,-0.82812 -0.0898,-1.1875 0.17969,-0.25781 0.41407,-0.48047 0.64453,-0.69922 3.70313,-3.51172 7.41797,-7.01172 11.11329,-10.52734 0.84765,-0.80078 1.64843,-1.65235 2.46484,-2.48047 0,-5.47656 0,-10.89453 0,-16.3125 -0.41797,-0.0234 -0.52344,0.32422 -0.69531,0.55859 -1.34375,1.85157 -2.76563,3.64063 -4.23828,5.38672 -0.20704,0.2461 -0.40625,0.4961 -0.6211,0.73047 -0.29297,0.32031 -0.62109,0.61719 -1.09375,0.53125 -0.52734,-0.0937 -0.82422,-0.44141 -0.91406,-1.10156 0.55859,-1.17969 1.60937,-2.10547 2.45312,-3.17969 0.82032,-1.04687 1.6875,-2.05469 2.51563,-3.09766 0.85937,-1.07812 1.60937,-2.24218 2.56641,-3.14453 0.16796,-2.27734 0.12109,-5.87109 -0.0781,-7.02343 -0.32031,0 -0.42969,0.27734 -0.59375,0.47265 -14.56641,17.14063 -13.98047,15.20313 -17.01172,19.4336 -0.21875,0.30078 -0.43359,0.60937 -0.6875,0.87109 -0.34375,0.35937 -0.78125,0.42969 -1.16015,0.24219 -0.42969,-0.21094 -0.63282,-0.69141 -0.53125,-1.21485 0.0703,-0.3789 0.26562,-0.6914 0.50781,-0.98047 5.5,-6.52734 12.70703,-13.84374 19.59375,-22.43359 0,-2.1289 0,-4.19531 0,-6.25781 -0.40235,-0.17578 -13.78125,14.07812 -14.0625,14.37891 -0.39844,0.42578 -0.74219,0.90234 -1.11328,1.35156 -0.20313,0.24609 -0.38672,0.51172 -0.625,0.71484 -0.37891,0.32031 -0.94922,0.27344 -1.3125,-0.0586 -0.37891,-0.34375 -0.4961,-0.89063 -0.19141,-1.29688 0.53906,-0.72265 1.09766,-1.4375 1.71094,-2.09765 18.16406,-19.61719 15.63672,-12.44532 15.63672,-26.714848 -0.39844,-0.167968 -0.50782,0.113282 -0.65625,0.304688 -1.5625,2.015625 -3.125,4.03516 -4.69141,6.04688 -0.19531,0.25 -0.40625,0.49218 -0.64844,0.69531 -0.39453,0.33594 -0.82031,0.35547 -1.16797,0.11328 -0.42578,-0.29688 -0.5664,-0.76953 -0.29296,-1.25781 0.28515,-0.50782 0.60937,-0.9961 0.96875,-1.45703 0.88281,-1.128911 1.79296,-2.242192 2.69921,-3.351568 1.3125,-1.609374 2.5586,-3.265624 3.75,-5.023437 0,-2.300781 0,-4.632813 0,-6.960937 -0.375,-0.04688 -0.5,0.199218 -0.64843,0.414062 -1.51563,2.1875 -3.20313,4.242188 -4.9336,6.261719 -1.85156,2.167969 -3.25,0.695312 -1.58593,-1.328125 10.83593,-13.160156 5.22265,-10.710938 13.26953,-4.085938 1.71093,1.414063 3.42578,2.828125 5.13672,4.246094 0.32421,0.269531 0.625,0.578125 0.89062,0.90625 0.16406,0.199219 0.28516,0.453125 0.34766,0.703125 0.0859,0.320313 -0.004,0.632813 -0.28125,0.855469 -0.26563,0.210937 -0.57813,0.3125 -0.88282,0.136718 -0.36718,-0.210937 -0.71875,-0.453124 -1.04296,-0.722656 -2.07813,-1.742187 -4.14063,-3.496094 -6.21485,-5.242187 -0.51953,-0.441407 -1.05078,-0.871094 -1.5039,-1.246094 -0.32422,0.03125 -0.38282,0.183594 -0.38282,0.335937 -0.004,2.070313 -0.004,4.144532 -0.004,6.203126 1.83984,2.253906 3.75781,4.375 6.08984,6.089843 0.33594,0.25 0.64063,0.566407 0.89063,0.902344 0.23828,0.316406 0.24218,0.707031 -0.0117,1.039065 -0.25391,0.33203 -0.61328,0.45703 -0.99219,0.29687 -0.38672,-0.15625 -0.75781,-0.37109 -1.10938,-0.605466 -1.33593,-0.894532 -2.42968,-2.054688 -3.52734,-3.214844 -0.36328,-0.382812 -0.71094,-0.78125 -1.21875,-1.335938"
       fill-opacity="1"
       fill-rule="nonzero"
       id="path142" />
  </g>
  <path
     fill="#000000"
     d="m 71.29587,9.3359366 c -0.23828,2.9531254 -0.0625,1.1132814 5.01172,5.6523444 0.29687,0.269531 1.12109,0.625 1.05859,1.148437 -0.12891,1.144532 -1.42578,0.566406 -1.94922,0.148438 C 75.06149,16 71.27243,13.769531 71.40524,13.429687 c -0.0586,0.148437 -0.0391,17.750005 -0.0391,17.910155 9.73828,5.58594 18.48828,14.38281 18.74219,14.6836 0.78125,0.93359 -0.41406,2.05468 -1.32813,1.51562 0,0 -8.4414,-8.19922 -16.67968,-13.53516 -0.17579,-0.11718 -0.35547,-0.24218 -0.60547,-0.16796 -0.21875,0.3789 -0.10938,0.80859 -0.10938,1.21484 0.0391,5.95703 0.0977,11.91406 0.125,17.87109 0.004,0.75781 0.22656,1.46485 0.28125,2.16797 1.47656,2.0625 3.40235,3.67188 5.10156,5.48828 2.04688,2.1875 9.40625,11.32422 9.84375,12.125 0.59375,1.08203 -0.98828,2.33203 -1.875,1.07813 -3.24609,-4.57813 -8.82031,-11.26172 -12.64843,-15.15625 -0.10938,-0.10547 -0.2461,-0.1836 -0.34766,-0.25782 -0.0859,0.0156 -0.14453,0.0117 -0.17578,0.0391 -0.0352,0.0312 -0.0625,0.0937 -0.0625,0.14062 -0.004,3.98828 -0.004,7.97656 -0.004,11.90625 0.60547,1.25781 0.9336,1.41016 6.35547,7.82813 0.375,0.44531 0.72656,0.91406 1.05469,1.39843 0.14062,0.21094 0.23437,0.47657 0.27734,0.73047 0.0508,0.33594 -0.0859,0.6211 -0.3789,0.82032 -0.29297,0.20312 -0.6211,0.23046 -0.89063,0.0234 -0.375,-0.28906 -0.73437,-0.61328 -1.04297,-0.97656 -4.85547,-5.76172 -4.60156,-5.73828 -5.15625,-6.03516 -0.29297,0.32422 -0.21484,-2.24218 -0.0156,31.722658 0.0352,6.32813 0.082,12.65625 0.11328,18.98828 0.0508,10.16016 0.0937,20.32031 0.13672,30.48047 0.004,0.52734 -0.004,1.0625 -0.0664,1.58984 -0.0586,0.46875 -0.42578,0.79688 -0.83594,0.83985 -0.44921,0.0508 -0.96875,-0.29297 -1.0625,-0.78125 -0.0781,-0.41016 -0.082,-0.84375 -0.0859,-1.26563 -0.16016,-33.49609 -0.1211,-20.19922 -0.30469,-51.38281 -0.18359,-30.656248 -0.0508,-29.210938 -0.26172,-30.097658 -0.55859,-0.19921 -3.90625,4.10157 -4.48828,4.61719 -0.80469,0.71485 -2.57422,-0.30469 -0.89453,-2.1289 5.125,-5.57032 5.47265,-5.58594 5.4375,-7.21094 -0.0469,-2.28516 -0.0234,-4.57422 -0.0312,-6.85938 -0.008,-1.17187 -0.0156,-2.33984 -0.0312,-3.51172 -0.004,-0.25781 -0.0391,-0.51953 -0.0625,-0.77343 -0.38281,-0.0234 -0.5,0.23828 -0.65625,0.4375 -1.14453,1.4375 -13.36328,15.96484 -15.07813,14.29297 -1.51562,-1.47657 2.28516,-1.89844 15.30078,-17.65235 0.13282,-0.16406 0.25782,-0.33594 0.39454,-0.51953 0,-6.85547 0,-13.71094 0,-20.54297 -0.30079,-0.11328 -0.45313,0.0156 -0.58204,0.1875 -3.30859,4.48438 -7.5039,7.98438 -11.55859,11.85938 -1.61328,1.54687 -1.41797,2.46484 -2.64453,2.16797 -4.09375,-0.9961 5.5,-5.97657 13.33203,-16.11328 1.4375,-1.86329 1.44531,-1.86719 1.42969,-4.19922 -0.10547,-12.714848 -0.0469,-12.117191 -0.26563,-12.414066 -0.73437,-0.148438 -3.3789,5.851566 -4.92968,3.863286 -0.27735,-0.35938 -0.24219,-0.824224 0.14062,-1.312505 5.96484,-7.589844 4.93359,-5.875 4.85938,-13.0078134 -2.03907,0.953126 -14.0586,17.3984384 -15.36329,17.6874984 -0.69531,0.0234 -1.00781,-0.44531 -1.23828,-1.02734 0.39453,-1.35938 9.83594,-12.2382824 11.13282,-13.6875014 7.74218,-8.62109396 4.85937,-10.433594 10.64843,-4.699219 3.60547,3.5625 14.71485,15.7773404 14.79297,15.8789104 0.3711,0.5 0.32813,1.04687 -0.0625,1.44922 -0.89062,0.92578 -0.97656,0.73828 -14.02344,-13.8125054 -5.45312,-6.082031 -3.33203,-2.792969 -3.72265,2.03125"
     fill-opacity="1"
     fill-rule="nonzero"
     id="path146" />
  <g
     clip-path="url(#c57c7300b6)"
     id="g150"
     transform="translate(-78.2471,-80.648438)">
    <path
       fill="#000000"
       d="m 178.72656,153.98828 c 0.0469,-3.5625 0.0937,-7.07031 0.14063,-10.54687 -0.47657,-0.14844 -0.65625,0.16796 -0.875,0.375 -1.39063,1.3164 -2.76953,2.64062 -4.16016,3.95312 -0.26953,0.25391 -0.55078,0.50781 -0.85547,0.70703 -0.39844,0.25781 -0.82812,0.17578 -1.16015,-0.15625 -0.30469,-0.30859 -0.40235,-0.8125 -0.15625,-1.17187 0.23828,-0.34766 0.52734,-0.66797 0.83593,-0.95703 1.04297,-0.98438 2.11719,-1.94141 3.16407,-2.91797 1.04687,-0.98047 2.07812,-1.97657 3.0625,-2.91407 0.21484,-1.30468 0.38671,-9.84765 0.28906,-13.62109 -0.15625,-0.13672 -0.29688,-0.0508 -0.37891,0.0703 -2.88672,4.54297 -6.36719,8.64063 -9.65234,12.88672 -0.45313,0.58594 -0.88672,1.19141 -1.35547,1.76953 -0.43359,0.53516 -0.94141,0.62891 -1.38281,0.30078 -0.44922,-0.33203 -0.60547,-0.89062 -0.30078,-1.41796 0.28906,-0.50391 0.65234,-0.96485 1.01171,-1.42579 2.125,-2.72656 4.26172,-5.4414 6.37891,-8.17187 1.75781,-2.26953 3.41406,-4.61328 4.92969,-7.05469 0.69922,-1.125 1.01172,-3.83984 2.625,-2.16406 0.10547,0.10938 0.16797,0.26563 0.23047,0.41016 0.53906,1.28515 1.32812,2.41797 2.16015,3.52343 1.3086,1.73829 2.63672,3.46875 3.9375,5.21875 1.39844,1.88672 3.02344,3.5625 4.67969,5.21485 1.62109,1.61718 3.20313,3.26562 4.49609,5.16406 0.35938,0.52734 0.76954,1.02344 0.87891,1.67187 -0.0195,0.28125 -0.0977,0.54297 -0.30469,0.72657 -0.44531,0.38672 -0.90234,0.42187 -1.28515,0.0625 -0.26953,-0.2461 -0.48828,-0.5586 -0.69532,-0.86328 -0.96093,-1.41016 -1.99609,-2.76563 -3.23437,-3.9336 -3.62109,-3.40625 -6.67188,-7.28515 -9.54297,-11.32031 -0.26953,-0.37891 -0.48047,-0.81641 -1.05469,-1.14062 -0.0273,2.53515 -0.0469,4.96093 -0.0781,7.38281 -0.0312,2.4414 -0.1211,4.8789 0.13672,7.5 0.25,0.51953 0.87109,0.94531 1.46093,1.39453 1.30469,1 2.63672,1.97265 3.9336,2.98828 0.58594,0.45312 1.13672,0.96094 1.67187,1.47656 0.26172,0.25391 0.48828,0.5586 0.67969,0.875 0.24219,0.40625 0.14063,0.85547 -0.19922,1.15235 -0.3164,0.27734 -0.67969,0.32812 -1.02344,0.10546 -0.35546,-0.22656 -0.6914,-0.49218 -1.0039,-0.77734 -1.64844,-1.50781 -3.42188,-2.86328 -5.1836,-4.23437 -0.125,-0.0937 -0.25,-0.19532 -0.4414,-0.10938 -0.0469,0.0586 -0.15625,0.13281 -0.16016,0.21094 -0.12109,4.14062 -0.16015,8.28515 -0.13672,12.28515 5.34375,5.62891 10.13282,11.52735 14.94922,17.39844 0.36719,0.44922 0.79688,0.86719 0.92578,1.54297 -0.0586,0.14453 -0.0977,0.375 -0.23047,0.51953 -0.52343,0.5586 -0.99609,0.60156 -1.51171,0.13281 -0.27344,-0.25 -0.51563,-0.53515 -0.73829,-0.83203 -2.02343,-2.67187 -4.26171,-5.16406 -6.44531,-7.70703 -1.83203,-2.13672 -3.58203,-4.34765 -5.38672,-6.50781 -0.42968,-0.51563 -0.8125,-1.09766 -1.47656,-1.42578 -0.16797,1.11328 -0.33203,8.42969 -0.23437,10.12109 1.70703,2.47266 3.74609,4.71094 5.74218,6.98438 0.35157,0.39843 0.71094,0.79297 1.02735,1.21875 0.18359,0.25 0.33984,0.54297 0.42968,0.83984 0.125,0.39063 -0.0195,0.73828 -0.35546,0.97656 -0.28516,0.20703 -0.60157,0.20313 -0.90235,0.0469 -0.43359,-0.22266 -0.75781,-0.57813 -1.0664,-0.94531 -1.39844,-1.67188 -2.79688,-3.34375 -4.19532,-5.01172 -0.19922,-0.23438 -0.32812,-0.54688 -0.67968,-0.64063 -0.25,0.42578 -0.14063,0.85156 -0.14454,1.25391 -0.13671,11.91406 -0.2539,23.82812 -0.39453,35.74219 -0.10547,9.03906 -0.24218,18.08203 -0.36718,27.12109 -0.008,0.42578 -0.008,0.85547 -0.0742,1.27344 -0.082,0.53125 -0.50782,0.92578 -0.9336,0.94922 -0.47656,0.0273 -0.98047,-0.41797 -1.07031,-1 -0.0547,-0.36329 -0.0469,-0.74219 -0.0391,-1.11329 0.0352,-2.92578 0.0781,-5.84765 0.11719,-8.77343 0.0586,-4.14844 0.125,-8.29688 0.17578,-12.44532 0.14453,-11.96484 0.27734,-23.93359 0.42187,-35.89843 0.0273,-2.17969 0.082,-4.35938 0.1211,-6.53907 0.008,-0.42187 0.004,-0.84375 0.004,-1.24609 -0.3789,-0.13672 -0.54297,0.0977 -0.71094,0.29297 -1.40234,1.66797 -3.05468,3.11328 -4.33593,4.88672 -0.0937,0.1289 -0.21094,0.24219 -0.32813,0.34765 -0.28906,0.26954 -0.63281,0.38672 -1.02344,0.3125 -1.5625,-0.30078 -0.33984,-2.01562 0.71094,-3.1914 0.92188,-1.02735 1.89453,-2.00781 2.85547,-3.00781 0.84375,-0.88282 1.66406,-1.78907 2.39063,-2.77344 0.32031,-0.4375 0.52343,-0.89844 0.52343,-1.46875 0.004,-3.34766 0.0391,-6.69922 0.0547,-10.05078 0,-0.10157 -0.0508,-0.20313 -0.0781,-0.30469 -0.16407,-0.0937 -0.28125,-0.0195 -0.375,0.11328 -2.44141,3.42578 -5.26172,6.54297 -8.01172,9.71094 -1.25391,1.44531 -2.48438,2.91406 -3.72266,4.375 -0.44531,0.52344 -0.90625,1.03515 -1.21094,1.67187 -0.26172,0.53907 -0.69531,0.9336 -1.23828,1.19532 -0.41797,0.20312 -0.85156,0.13281 -1.16797,-0.19922 -0.27734,-0.29297 -0.35937,-0.63672 -0.25,-1.03125 0.14063,-0.48047 0.49219,-0.81641 0.79688,-1.17578 2.19531,-2.59766 4.40234,-5.19141 6.60937,-7.78125 1.82422,-2.14454 3.66016,-4.28125 5.47266,-6.4375 0.61328,-0.73438 1.17578,-1.51172 1.73437,-2.28516 0.46094,-0.64453 0.83594,-1.35547 1.55469,-1.76172"
       fill-opacity="1"
       fill-rule="nonzero"
       id="path148" />
  </g>
  <g
     fill="#008037"
     fill-opacity="1"
     id="g158"
     transform="translate(-78.2471,-80.648438)">
    <g
       transform="translate(78.356475,268.94609)"
       id="g156">
      <g
         id="g154">
        <path
           d="m 12.046875,-3.5625 h -7.6875 L 2.84375,0 H -0.109375 L 6.8125,-15.390625 H 9.625 L 16.578125,0 H 13.59375 Z m -0.9375,-2.234375 -2.90625,-6.734375 -2.890625,6.734375 z m 0,0"
           id="path152" />
      </g>
    </g>
  </g>
  <g
     fill="#008037"
     fill-opacity="1"
     id="g166"
     transform="translate(-78.2471,-80.648438)">
    <g
       transform="translate(102.90501,268.94609)"
       id="g164">
      <g
         id="g162">
        <path
           d="m 12.140625,0 -3.15625,-4.5 c -0.125,0.011719 -0.324219,0.015625 -0.59375,0.015625 H 4.921875 V 0 H 2.0625 v -15.390625 h 6.328125 c 1.34375,0 2.503906,0.226563 3.484375,0.671875 0.988281,0.4375 1.75,1.070312 2.28125,1.890625 0.53125,0.8125 0.796875,1.78125 0.796875,2.90625 0,1.167969 -0.289063,2.167969 -0.859375,3 -0.5625,0.835937 -1.371094,1.453125 -2.421875,1.859375 L 15.21875,0 Z M 12.0625,-9.921875 c 0,-0.976563 -0.324219,-1.726563 -0.96875,-2.25 -0.636719,-0.53125 -1.578125,-0.796875 -2.828125,-0.796875 h -3.34375 v 6.125 h 3.34375 c 1.25,0 2.191406,-0.265625 2.828125,-0.796875 0.644531,-0.53125 0.96875,-1.289063 0.96875,-2.28125 z m 0,0"
           id="path160" />
      </g>
    </g>
  </g>
  <g
     fill="#008037"
     fill-opacity="1"
     id="g174"
     transform="translate(-78.2471,-80.648438)">
    <g
       transform="translate(127.05803,268.94609)"
       id="g172">
      <g
         id="g170">
        <path
           d="m 12.96875,-8 c 0.851562,0.28125 1.523438,0.75 2.015625,1.40625 0.5,0.648438 0.75,1.453125 0.75,2.421875 0,1.335937 -0.515625,2.367187 -1.546875,3.09375 C 13.164062,-0.359375 11.675781,0 9.71875,0 H 2.0625 v -15.390625 h 7.21875 c 1.8125,0 3.207031,0.359375 4.1875,1.078125 0.988281,0.710938 1.484375,1.683594 1.484375,2.921875 0,0.761719 -0.179687,1.4375 -0.53125,2.03125 C 14.066406,-8.773438 13.582031,-8.320312 12.96875,-8 Z M 4.921875,-13.140625 V -8.90625 H 8.96875 c 1,0 1.765625,-0.175781 2.296875,-0.53125 0.53125,-0.363281 0.796875,-0.890625 0.796875,-1.578125 0,-0.695313 -0.265625,-1.222656 -0.796875,-1.578125 -0.53125,-0.363281 -1.296875,-0.546875 -2.296875,-0.546875 z M 9.546875,-2.25 c 2.207031,0 3.3125,-0.738281 3.3125,-2.21875 0,-1.476562 -1.105469,-2.21875 -3.3125,-2.21875 h -4.625 V -2.25 Z m 0,0"
           id="path168" />
      </g>
    </g>
  </g>
  <g
     fill="#008037"
     fill-opacity="1"
     id="g182"
     transform="translate(-78.2471,-80.648438)">
    <g
       transform="translate(151.87024,268.94609)"
       id="g180">
      <g
         id="g178">
        <path
           d="m 9.25,0.21875 c -1.5625,0 -2.976562,-0.335938 -4.234375,-1.015625 -1.261719,-0.6875 -2.25,-1.632813 -2.96875,-2.84375 C 1.328125,-4.847656 0.96875,-6.195312 0.96875,-7.6875 c 0,-1.5 0.359375,-2.851562 1.078125,-4.0625 0.71875,-1.207031 1.707031,-2.148438 2.96875,-2.828125 1.257813,-0.6875 2.671875,-1.03125 4.234375,-1.03125 1.570312,0 2.988281,0.34375 4.25,1.03125 1.257812,0.679687 2.25,1.621094 2.96875,2.828125 0.71875,1.199219 1.078125,2.554688 1.078125,4.0625 0,1.5 -0.359375,2.855469 -1.078125,4.0625 C 15.75,-2.425781 14.757812,-1.484375 13.5,-0.796875 12.238281,-0.117188 10.820312,0.21875 9.25,0.21875 Z m 0,-2.5 c 1.03125,0 1.953125,-0.226562 2.765625,-0.6875 0.820313,-0.46875 1.46875,-1.113281 1.9375,-1.9375 0.46875,-0.832031 0.703125,-1.757812 0.703125,-2.78125 0,-1.03125 -0.234375,-1.957031 -0.703125,-2.78125 -0.46875,-0.832031 -1.117187,-1.476562 -1.9375,-1.9375 -0.8125,-0.46875 -1.734375,-0.703125 -2.765625,-0.703125 -1.023438,0 -1.945312,0.234375 -2.765625,0.703125 -0.824219,0.460938 -1.46875,1.105469 -1.9375,1.9375 -0.46875,0.824219 -0.703125,1.75 -0.703125,2.78125 0,1.023438 0.234375,1.949219 0.703125,2.78125 0.46875,0.824219 1.113281,1.46875 1.9375,1.9375 0.820313,0.460938 1.742187,0.6875 2.765625,0.6875 z m 0,0"
           id="path176" />
      </g>
    </g>
  </g>
  <g
     fill="#008037"
     fill-opacity="1"
     id="g190"
     transform="translate(-78.2471,-80.648438)">
    <g
       transform="translate(178.46226,268.94609)"
       id="g188">
      <g
         id="g186">
        <path
           d="m 12.140625,0 -3.15625,-4.5 c -0.125,0.011719 -0.324219,0.015625 -0.59375,0.015625 H 4.921875 V 0 H 2.0625 v -15.390625 h 6.328125 c 1.34375,0 2.503906,0.226563 3.484375,0.671875 0.988281,0.4375 1.75,1.070312 2.28125,1.890625 0.53125,0.8125 0.796875,1.78125 0.796875,2.90625 0,1.167969 -0.289063,2.167969 -0.859375,3 -0.5625,0.835937 -1.371094,1.453125 -2.421875,1.859375 L 15.21875,0 Z M 12.0625,-9.921875 c 0,-0.976563 -0.324219,-1.726563 -0.96875,-2.25 -0.636719,-0.53125 -1.578125,-0.796875 -2.828125,-0.796875 h -3.34375 v 6.125 h 3.34375 c 1.25,0 2.191406,-0.265625 2.828125,-0.796875 0.644531,-0.53125 0.96875,-1.289063 0.96875,-2.28125 z m 0,0"
           id="path184" />
      </g>
    </g>
  </g>
  <g
     fill="#008037"
     fill-opacity="1"
     id="g198"
     transform="translate(-78.2471,-80.648438)">
    <g
       transform="translate(202.61528,268.94609)"
       id="g196">
      <g
         id="g194">
        <path
           d="m 12.96875,-8 c 0.851562,0.28125 1.523438,0.75 2.015625,1.40625 0.5,0.648438 0.75,1.453125 0.75,2.421875 0,1.335937 -0.515625,2.367187 -1.546875,3.09375 C 13.164062,-0.359375 11.675781,0 9.71875,0 H 2.0625 v -15.390625 h 7.21875 c 1.8125,0 3.207031,0.359375 4.1875,1.078125 0.988281,0.710938 1.484375,1.683594 1.484375,2.921875 0,0.761719 -0.179687,1.4375 -0.53125,2.03125 C 14.066406,-8.773438 13.582031,-8.320312 12.96875,-8 Z M 4.921875,-13.140625 V -8.90625 H 8.96875 c 1,0 1.765625,-0.175781 2.296875,-0.53125 0.53125,-0.363281 0.796875,-0.890625 0.796875,-1.578125 0,-0.695313 -0.265625,-1.222656 -0.796875,-1.578125 -0.53125,-0.363281 -1.296875,-0.546875 -2.296875,-0.546875 z M 9.546875,-2.25 c 2.207031,0 3.3125,-0.738281 3.3125,-2.21875 0,-1.476562 -1.105469,-2.21875 -3.3125,-2.21875 h -4.625 V -2.25 Z m 0,0"
           id="path192" />
      </g>
    </g>
  </g>
  <g
     fill="#008037"
     fill-opacity="1"
     id="g206"
     transform="translate(-78.2471,-80.648438)">
    <g
       transform="translate(227.4275,268.94609)"
       id="g204">
      <g
         id="g202">
        <path
           d="m 9.25,0.21875 c -1.5625,0 -2.976562,-0.335938 -4.234375,-1.015625 -1.261719,-0.6875 -2.25,-1.632813 -2.96875,-2.84375 C 1.328125,-4.847656 0.96875,-6.195312 0.96875,-7.6875 c 0,-1.5 0.359375,-2.851562 1.078125,-4.0625 0.71875,-1.207031 1.707031,-2.148438 2.96875,-2.828125 1.257813,-0.6875 2.671875,-1.03125 4.234375,-1.03125 1.570312,0 2.988281,0.34375 4.25,1.03125 1.257812,0.679687 2.25,1.621094 2.96875,2.828125 0.71875,1.199219 1.078125,2.554688 1.078125,4.0625 0,1.5 -0.359375,2.855469 -1.078125,4.0625 C 15.75,-2.425781 14.757812,-1.484375 13.5,-0.796875 12.238281,-0.117188 10.820312,0.21875 9.25,0.21875 Z m 0,-2.5 c 1.03125,0 1.953125,-0.226562 2.765625,-0.6875 0.820313,-0.46875 1.46875,-1.113281 1.9375,-1.9375 0.46875,-0.832031 0.703125,-1.757812 0.703125,-2.78125 0,-1.03125 -0.234375,-1.957031 -0.703125,-2.78125 -0.46875,-0.832031 -1.117187,-1.476562 -1.9375,-1.9375 -0.8125,-0.46875 -1.734375,-0.703125 -2.765625,-0.703125 -1.023438,0 -1.945312,0.234375 -2.765625,0.703125 -0.824219,0.460938 -1.46875,1.105469 -1.9375,1.9375 -0.46875,0.824219 -0.703125,1.75 -0.703125,2.78125 0,1.023438 0.234375,1.949219 0.703125,2.78125 0.46875,0.824219 1.113281,1.46875 1.9375,1.9375 0.820313,0.460938 1.742187,0.6875 2.765625,0.6875 z m 0,0"
           id="path200" />
      </g>
    </g>
  </g>
  <g
     fill="#008037"
     fill-opacity="1"
     id="g214"
     transform="translate(-78.2471,-80.648438)">
    <g
       transform="translate(254.01953,268.94609)"
       id="g212">
      <g
         id="g210">
        <path
           d="m 9.25,0.21875 c -1.5625,0 -2.976562,-0.335938 -4.234375,-1.015625 -1.261719,-0.6875 -2.25,-1.632813 -2.96875,-2.84375 C 1.328125,-4.847656 0.96875,-6.195312 0.96875,-7.6875 c 0,-1.5 0.359375,-2.851562 1.078125,-4.0625 0.71875,-1.207031 1.707031,-2.148438 2.96875,-2.828125 1.257813,-0.6875 2.671875,-1.03125 4.234375,-1.03125 1.570312,0 2.988281,0.34375 4.25,1.03125 1.257812,0.679687 2.25,1.621094 2.96875,2.828125 0.71875,1.199219 1.078125,2.554688 1.078125,4.0625 0,1.5 -0.359375,2.855469 -1.078125,4.0625 C 15.75,-2.425781 14.757812,-1.484375 13.5,-0.796875 12.238281,-0.117188 10.820312,0.21875 9.25,0.21875 Z m 0,-2.5 c 1.03125,0 1.953125,-0.226562 2.765625,-0.6875 0.820313,-0.46875 1.46875,-1.113281 1.9375,-1.9375 0.46875,-0.832031 0.703125,-1.757812 0.703125,-2.78125 0,-1.03125 -0.234375,-1.957031 -0.703125,-2.78125 -0.46875,-0.832031 -1.117187,-1.476562 -1.9375,-1.9375 -0.8125,-0.46875 -1.734375,-0.703125 -2.765625,-0.703125 -1.023438,0 -1.945312,0.234375 -2.765625,0.703125 -0.824219,0.460938 -1.46875,1.105469 -1.9375,1.9375 -0.46875,0.824219 -0.703125,1.75 -0.703125,2.78125 0,1.023438 0.234375,1.949219 0.703125,2.78125 0.46875,0.824219 1.113281,1.46875 1.9375,1.9375 0.820313,0.460938 1.742187,0.6875 2.765625,0.6875 z m 0,0"
           id="path208" />
      </g>
    </g>
  </g>
  <g
     fill="#008037"
     fill-opacity="1"
     id="g222"
     transform="translate(-78.2471,-80.648438)">
    <g
       transform="translate(280.61155,268.94609)"
       id="g220">
      <g
         id="g218">
        <path
           d="m 7.359375,-6.4375 -2.4375,2.5 V 0 H 2.0625 V -15.390625 H 4.921875 V -7.5 l 7.609375,-7.890625 h 3.203125 L 9.28125,-8.515625 16.140625,0 h -3.34375 z m 0,0"
           id="path216" />
      </g>
    </g>
  </g>
  <g
     fill="#579e39"
     fill-opacity="1"
     id="g230"
     transform="translate(-78.2471,-80.648438)">
    <g
       transform="translate(86.963049,293.56268)"
       id="g228">
      <g
         id="g226">
        <path
           d="M 6.125,-1.8125 H 2.21875 L 1.4375,0 h -1.5 L 3.46875,-7.8125 H 4.890625 L 8.421875,0 H 6.90625 Z M 5.640625,-2.953125 4.171875,-6.375 2.703125,-2.953125 Z m 0,0"
           id="path224" />
      </g>
    </g>
  </g>
  <g
     fill="#579e39"
     fill-opacity="1"
     id="g238"
     transform="translate(-78.2471,-80.648438)">
    <g
       transform="translate(99.436641,293.56268)"
       id="g236">
      <g
         id="g234">
        <path
           d="M 6.171875,0 4.5625,-2.296875 C 4.5,-2.285156 4.398438,-2.28125 4.265625,-2.28125 H 2.5 V 0 H 1.046875 v -7.8125 h 3.21875 c 0.675781,0 1.265625,0.109375 1.765625,0.328125 0.507812,0.21875 0.894531,0.539063 1.15625,0.953125 0.269531,0.417969 0.40625,0.917969 0.40625,1.5 0,0.585938 -0.148438,1.089844 -0.4375,1.515625 C 6.875,-3.085938 6.46875,-2.769531 5.9375,-2.5625 L 7.734375,0 Z m -0.03125,-5.03125 c 0,-0.5 -0.167969,-0.882812 -0.5,-1.15625 -0.324219,-0.269531 -0.804687,-0.40625 -1.4375,-0.40625 H 2.5 v 3.125 h 1.703125 c 0.632813,0 1.113281,-0.132812 1.4375,-0.40625 0.332031,-0.28125 0.5,-0.664062 0.5,-1.15625 z m 0,0"
           id="path232" />
      </g>
    </g>
  </g>
  <g
     fill="#579e39"
     fill-opacity="1"
     id="g246"
     transform="translate(-78.2471,-80.648438)">
    <g
       transform="translate(111.70926,293.56268)"
       id="g244">
      <g
         id="g242">
        <path
           d="m 6.59375,-4.0625 c 0.425781,0.136719 0.765625,0.371094 1.015625,0.703125 C 7.867188,-3.023438 8,-2.613281 8,-2.125 8,-1.445312 7.738281,-0.921875 7.21875,-0.546875 6.695312,-0.179688 5.9375,0 4.9375,0 H 1.046875 V -7.8125 H 4.71875 c 0.914062,0 1.625,0.183594 2.125,0.546875 0.5,0.355469 0.75,0.851563 0.75,1.484375 0,0.386719 -0.089844,0.730469 -0.265625,1.03125 C 7.148438,-4.457031 6.90625,-4.226562 6.59375,-4.0625 Z M 2.5,-6.6875 v 2.15625 h 2.0625 c 0.5,0 0.882812,-0.085938 1.15625,-0.265625 C 6,-4.984375 6.140625,-5.25 6.140625,-5.59375 6.140625,-5.957031 6,-6.226562 5.71875,-6.40625 5.445312,-6.59375 5.0625,-6.6875 4.5625,-6.6875 Z m 2.34375,5.546875 c 1.125,0 1.6875,-0.375 1.6875,-1.125 0,-0.75 -0.5625,-1.125 -1.6875,-1.125 H 2.5 v 2.25 z m 0,0"
           id="path240" />
      </g>
    </g>
  </g>
  <g
     fill="#579e39"
     fill-opacity="1"
     id="g254"
     transform="translate(-78.2471,-80.648438)">
    <g
       transform="translate(124.31683,293.56268)"
       id="g252">
      <g
         id="g250">
        <path
           d="M 4.703125,0.109375 C 3.910156,0.109375 3.191406,-0.0625 2.546875,-0.40625 1.910156,-0.75 1.40625,-1.226562 1.03125,-1.84375 0.664062,-2.457031 0.484375,-3.144531 0.484375,-3.90625 c 0,-0.757812 0.179687,-1.445312 0.546875,-2.0625 0.375,-0.613281 0.878906,-1.09375 1.515625,-1.4375 0.644531,-0.351562 1.363281,-0.53125 2.15625,-0.53125 0.800781,0 1.519531,0.179688 2.15625,0.53125 0.632813,0.34375 1.132813,0.824219 1.5,1.4375 0.375,0.605469 0.5625,1.292969 0.5625,2.0625 0,0.761719 -0.1875,1.449219 -0.5625,2.0625 -0.367187,0.617188 -0.867187,1.09375 -1.5,1.4375 -0.636719,0.34375 -1.355469,0.515625 -2.15625,0.515625 z m 0,-1.265625 c 0.519531,0 0.988281,-0.113281 1.40625,-0.34375 0.414063,-0.238281 0.742187,-0.566406 0.984375,-0.984375 0.238281,-0.425781 0.359375,-0.898437 0.359375,-1.421875 0,-0.519531 -0.121094,-0.988281 -0.359375,-1.40625 C 6.851562,-5.738281 6.523438,-6.066406 6.109375,-6.296875 5.691406,-6.535156 5.222656,-6.65625 4.703125,-6.65625 c -0.523437,0 -0.992187,0.121094 -1.40625,0.359375 -0.417969,0.230469 -0.746094,0.558594 -0.984375,0.984375 -0.242188,0.417969 -0.359375,0.886719 -0.359375,1.40625 0,0.523438 0.117187,0.996094 0.359375,1.421875 0.238281,0.417969 0.566406,0.746094 0.984375,0.984375 0.414063,0.230469 0.882813,0.34375 1.40625,0.34375 z m 0,0"
           id="path248" />
      </g>
    </g>
  </g>
  <g
     fill="#579e39"
     fill-opacity="1"
     id="g262"
     transform="translate(-78.2471,-80.648438)">
    <g
       transform="translate(137.82876,293.56268)"
       id="g260">
      <g
         id="g258">
        <path
           d="M 6.171875,0 4.5625,-2.296875 C 4.5,-2.285156 4.398438,-2.28125 4.265625,-2.28125 H 2.5 V 0 H 1.046875 v -7.8125 h 3.21875 c 0.675781,0 1.265625,0.109375 1.765625,0.328125 0.507812,0.21875 0.894531,0.539063 1.15625,0.953125 0.269531,0.417969 0.40625,0.917969 0.40625,1.5 0,0.585938 -0.148438,1.089844 -0.4375,1.515625 C 6.875,-3.085938 6.46875,-2.769531 5.9375,-2.5625 L 7.734375,0 Z m -0.03125,-5.03125 c 0,-0.5 -0.167969,-0.882812 -0.5,-1.15625 -0.324219,-0.269531 -0.804687,-0.40625 -1.4375,-0.40625 H 2.5 v 3.125 h 1.703125 c 0.632813,0 1.113281,-0.132812 1.4375,-0.40625 0.332031,-0.28125 0.5,-0.664062 0.5,-1.15625 z m 0,0"
           id="path256" />
      </g>
    </g>
  </g>
  <g
     fill="#579e39"
     fill-opacity="1"
     id="g270"
     transform="translate(-78.2471,-80.648438)">
    <g
       transform="translate(150.10139,293.56268)"
       id="g268">
      <g
         id="g266">
        <path
           d="M 1.046875,-7.8125 H 2.5 V 0 H 1.046875 Z m 0,0"
           id="path264" />
      </g>
    </g>
  </g>
  <g
     fill="#579e39"
     fill-opacity="1"
     id="g278"
     transform="translate(-78.2471,-80.648438)">
    <g
       transform="translate(157.77409,293.56268)"
       id="g276">
      <g
         id="g274">
        <path
           d="m 3.46875,0.109375 c -0.605469,0 -1.1875,-0.0859375 -1.75,-0.25 -0.5625,-0.175781 -1.007812,-0.40625 -1.328125,-0.6875 l 0.5,-1.125 c 0.320313,0.25 0.710937,0.460937 1.171875,0.625 0.46875,0.15625 0.9375,0.234375 1.40625,0.234375 0.582031,0 1.015625,-0.09375 1.296875,-0.28125 0.289063,-0.1875 0.4375,-0.429688 0.4375,-0.734375 0,-0.226563 -0.085937,-0.410156 -0.25,-0.546875 C 4.796875,-2.800781 4.59375,-2.914062 4.34375,-3 4.101562,-3.082031 3.769531,-3.175781 3.34375,-3.28125 2.75,-3.425781 2.269531,-3.566406 1.90625,-3.703125 1.539062,-3.847656 1.222656,-4.070312 0.953125,-4.375 0.691406,-4.675781 0.5625,-5.082031 0.5625,-5.59375 c 0,-0.4375 0.113281,-0.832031 0.34375,-1.1875 C 1.144531,-7.132812 1.5,-7.414062 1.96875,-7.625 c 0.476562,-0.207031 1.054688,-0.3125 1.734375,-0.3125 0.476563,0 0.945313,0.0625 1.40625,0.1875 0.46875,0.117188 0.867187,0.289062 1.203125,0.515625 l -0.453125,1.125 C 5.515625,-6.304688 5.15625,-6.457031 4.78125,-6.5625 4.40625,-6.664062 4.046875,-6.71875 3.703125,-6.71875 c -0.574219,0 -1,0.101562 -1.28125,0.296875 C 2.140625,-6.234375 2,-5.984375 2,-5.671875 c 0,0.230469 0.078125,0.417969 0.234375,0.5625 0.164063,0.136719 0.367187,0.246094 0.609375,0.328125 0.25,0.085938 0.585938,0.179688 1.015625,0.28125 0.570313,0.136719 1.046875,0.277344 1.421875,0.421875 0.375,0.148437 0.691406,0.371094 0.953125,0.671875 0.269531,0.292969 0.40625,0.6875 0.40625,1.1875 0,0.4375 -0.121094,0.835938 -0.359375,1.1875 -0.230469,0.34375 -0.585938,0.621094 -1.0625,0.828125 -0.480469,0.20703125 -1.0625,0.3125 -1.75,0.3125 z m 0,0"
           id="path272" />
      </g>
    </g>
  </g>
  <g
     fill="#579e39"
     fill-opacity="1"
     id="g286"
     transform="translate(-78.2471,-80.648438)">
    <g
       transform="translate(168.90789,293.56268)"
       id="g284">
      <g
         id="g282">
        <path
           d="M 2.640625,-6.59375 H 0.046875 V -7.8125 H 6.6875 v 1.21875 H 4.09375 V 0 H 2.640625 Z m 0,0"
           id="path280" />
      </g>
    </g>
  </g>
  <g
     fill="#579e39"
     fill-opacity="1"
     id="g300"
     transform="translate(-78.2471,-80.648438)">
    <g
       transform="translate(186.93285,293.56268)"
       id="g298">
      <g
         id="g296">
        <path
           d="M 1.046875,-7.8125 H 4.46875 c 0.832031,0 1.570312,0.164062 2.21875,0.484375 0.644531,0.324219 1.144531,0.78125 1.5,1.375 0.363281,0.585937 0.546875,1.265625 0.546875,2.046875 0,0.773438 -0.183594,1.453125 -0.546875,2.046875 -0.355469,0.59375 -0.855469,1.054687 -1.5,1.375 C 6.039062,-0.160156 5.300781,0 4.46875,0 H 1.046875 Z m 3.359375,6.578125 c 0.570312,0 1.070312,-0.109375 1.5,-0.328125 0.4375,-0.21875 0.769531,-0.53125 1,-0.9375 0.238281,-0.40625 0.359375,-0.875 0.359375,-1.40625 0,-0.539062 -0.121094,-1.015625 -0.359375,-1.421875 -0.230469,-0.40625 -0.5625,-0.71875 -1,-0.9375 -0.429688,-0.21875 -0.929688,-0.328125 -1.5,-0.328125 H 2.5 v 5.359375 z m 0,0"
           id="path294" />
      </g>
    </g>
  </g>
  <g
     fill="#579e39"
     fill-opacity="1"
     id="g308"
     transform="translate(-78.2471,-80.648438)">
    <g
       transform="translate(200.26614,293.56268)"
       id="g306">
      <g
         id="g304">
        <path
           d="M 1.046875,-7.8125 H 2.5 V 0 H 1.046875 Z m 0,0"
           id="path302" />
      </g>
    </g>
  </g>
  <g
     fill="#579e39"
     fill-opacity="1"
     id="g316"
     transform="translate(-78.2471,-80.648438)">
    <g
       transform="translate(207.93883,293.56268)"
       id="g314">
      <g
         id="g312">
        <path
           d="M 6.171875,0 4.5625,-2.296875 C 4.5,-2.285156 4.398438,-2.28125 4.265625,-2.28125 H 2.5 V 0 H 1.046875 v -7.8125 h 3.21875 c 0.675781,0 1.265625,0.109375 1.765625,0.328125 0.507812,0.21875 0.894531,0.539063 1.15625,0.953125 0.269531,0.417969 0.40625,0.917969 0.40625,1.5 0,0.585938 -0.148438,1.089844 -0.4375,1.515625 C 6.875,-3.085938 6.46875,-2.769531 5.9375,-2.5625 L 7.734375,0 Z m -0.03125,-5.03125 c 0,-0.5 -0.167969,-0.882812 -0.5,-1.15625 -0.324219,-0.269531 -0.804687,-0.40625 -1.4375,-0.40625 H 2.5 v 3.125 h 1.703125 c 0.632813,0 1.113281,-0.132812 1.4375,-0.40625 0.332031,-0.28125 0.5,-0.664062 0.5,-1.15625 z m 0,0"
           id="path310" />
      </g>
    </g>
  </g>
  <g
     fill="#579e39"
     fill-opacity="1"
     id="g324"
     transform="translate(-78.2471,-80.648438)">
    <g
       transform="translate(220.21145,293.56268)"
       id="g322">
      <g
         id="g320">
        <path
           d="M 6.921875,-1.21875 V 0 h -5.875 v -7.8125 h 5.71875 v 1.203125 H 2.5 V -4.5625 H 6.28125 V -3.375 H 2.5 v 2.15625 z m 0,0"
           id="path318" />
      </g>
    </g>
  </g>
  <g
     fill="#579e39"
     fill-opacity="1"
     id="g332"
     transform="translate(-78.2471,-80.648438)">
    <g
       transform="translate(231.80302,293.56268)"
       id="g330">
      <g
         id="g328">
        <path
           d="M 4.671875,0.109375 C 3.878906,0.109375 3.164062,-0.0625 2.53125,-0.40625 1.894531,-0.75 1.394531,-1.226562 1.03125,-1.84375 0.664062,-2.457031 0.484375,-3.144531 0.484375,-3.90625 c 0,-0.769531 0.179687,-1.457031 0.546875,-2.0625 0.375,-0.613281 0.878906,-1.09375 1.515625,-1.4375 0.632813,-0.351562 1.347656,-0.53125 2.140625,-0.53125 0.632812,0 1.21875,0.117188 1.75,0.34375 0.53125,0.21875 0.976562,0.542969 1.34375,0.96875 L 6.84375,-5.75 C 6.269531,-6.351562 5.570312,-6.65625 4.75,-6.65625 c -0.542969,0 -1.027344,0.121094 -1.453125,0.359375 -0.417969,0.230469 -0.746094,0.554687 -0.984375,0.96875 -0.242188,0.417969 -0.359375,0.890625 -0.359375,1.421875 0,0.53125 0.117187,1.007812 0.359375,1.421875 0.238281,0.417969 0.566406,0.746094 0.984375,0.984375 0.425781,0.230469 0.910156,0.34375 1.453125,0.34375 0.820312,0 1.519531,-0.3125 2.09375,-0.9375 l 0.9375,0.890625 C 7.414062,-0.773438 6.960938,-0.445312 6.421875,-0.21875 5.890625,0 5.304688,0.109375 4.671875,0.109375 Z m 0,0"
           id="path326" />
      </g>
    </g>
  </g>
  <g
     fill="#579e39"
     fill-opacity="1"
     id="g340"
     transform="translate(-78.2471,-80.648438)">
    <g
       transform="translate(244.03098,293.56268)"
       id="g338">
      <g
         id="g336">
        <path
           d="M 2.640625,-6.59375 H 0.046875 V -7.8125 H 6.6875 v 1.21875 H 4.09375 V 0 H 2.640625 Z m 0,0"
           id="path334" />
      </g>
    </g>
  </g>
  <g
     fill="#579e39"
     fill-opacity="1"
     id="g348"
     transform="translate(-78.2471,-80.648438)">
    <g
       transform="translate(254.86334,293.56268)"
       id="g346">
      <g
         id="g344">
        <path
           d="M 4.703125,0.109375 C 3.910156,0.109375 3.191406,-0.0625 2.546875,-0.40625 1.910156,-0.75 1.40625,-1.226562 1.03125,-1.84375 0.664062,-2.457031 0.484375,-3.144531 0.484375,-3.90625 c 0,-0.757812 0.179687,-1.445312 0.546875,-2.0625 0.375,-0.613281 0.878906,-1.09375 1.515625,-1.4375 0.644531,-0.351562 1.363281,-0.53125 2.15625,-0.53125 0.800781,0 1.519531,0.179688 2.15625,0.53125 0.632813,0.34375 1.132813,0.824219 1.5,1.4375 0.375,0.605469 0.5625,1.292969 0.5625,2.0625 0,0.761719 -0.1875,1.449219 -0.5625,2.0625 -0.367187,0.617188 -0.867187,1.09375 -1.5,1.4375 -0.636719,0.34375 -1.355469,0.515625 -2.15625,0.515625 z m 0,-1.265625 c 0.519531,0 0.988281,-0.113281 1.40625,-0.34375 0.414063,-0.238281 0.742187,-0.566406 0.984375,-0.984375 0.238281,-0.425781 0.359375,-0.898437 0.359375,-1.421875 0,-0.519531 -0.121094,-0.988281 -0.359375,-1.40625 C 6.851562,-5.738281 6.523438,-6.066406 6.109375,-6.296875 5.691406,-6.535156 5.222656,-6.65625 4.703125,-6.65625 c -0.523437,0 -0.992187,0.121094 -1.40625,0.359375 -0.417969,0.230469 -0.746094,0.558594 -0.984375,0.984375 -0.242188,0.417969 -0.359375,0.886719 -0.359375,1.40625 0,0.523438 0.117187,0.996094 0.359375,1.421875 0.238281,0.417969 0.566406,0.746094 0.984375,0.984375 0.414063,0.230469 0.882813,0.34375 1.40625,0.34375 z m 0,0"
           id="path342" />
      </g>
    </g>
  </g>
  <g
     fill="#579e39"
     fill-opacity="1"
     id="g356"
     transform="translate(-78.2471,-80.648438)">
    <g
       transform="translate(268.37528,293.56268)"
       id="g354">
      <g
         id="g352">
        <path
           d="M 6.171875,0 4.5625,-2.296875 C 4.5,-2.285156 4.398438,-2.28125 4.265625,-2.28125 H 2.5 V 0 H 1.046875 v -7.8125 h 3.21875 c 0.675781,0 1.265625,0.109375 1.765625,0.328125 0.507812,0.21875 0.894531,0.539063 1.15625,0.953125 0.269531,0.417969 0.40625,0.917969 0.40625,1.5 0,0.585938 -0.148438,1.089844 -0.4375,1.515625 C 6.875,-3.085938 6.46875,-2.769531 5.9375,-2.5625 L 7.734375,0 Z m -0.03125,-5.03125 c 0,-0.5 -0.167969,-0.882812 -0.5,-1.15625 -0.324219,-0.269531 -0.804687,-0.40625 -1.4375,-0.40625 H 2.5 v 3.125 h 1.703125 c 0.632813,0 1.113281,-0.132812 1.4375,-0.40625 0.332031,-0.28125 0.5,-0.664062 0.5,-1.15625 z m 0,0"
           id="path350" />
      </g>
    </g>
  </g>
  <g
     fill="#579e39"
     fill-opacity="1"
     id="g364"
     transform="translate(-78.2471,-80.648438)">
    <g
       transform="translate(280.64789,293.56268)"
       id="g362">
      <g
         id="g360">
        <path
           d="M 4.421875,-2.765625 V 0 H 2.96875 V -2.734375 L -0.09375,-7.8125 H 1.453125 L 3.75,-4.015625 6.0625,-7.8125 h 1.421875 z m 0,0"
           id="path358" />
      </g>
    </g>
  </g>
</svg>
