<?xml version="1.0" encoding="UTF-8" standalone="no"?>
<svg
   width="128"
   zoomAndPan="magnify"
   viewBox="0 0 293.6711 227.34578"
   height="99"
   preserveAspectRatio="xMidYMid"
   version="1.0"
   id="svg366"
   xmlns="http://www.w3.org/2000/svg"
   xmlns:svg="http://www.w3.org/2000/svg">
  <defs
     id="defs140" />
  <g
     fill="#008037"
     fill-opacity="1"
     id="g158"
     transform="matrix(1.3440013,0,0,1.3440013,-105.1642,-167.34984)">
    <g
       transform="translate(78.356475,268.94609)"
       id="g156">
      <g
         id="g154">
        <path
           d="m 12.046875,-3.5625 h -7.6875 L 2.84375,0 H -0.109375 L 6.8125,-15.390625 H 9.625 L 16.578125,0 H 13.59375 Z m -0.9375,-2.234375 -2.90625,-6.734375 -2.890625,6.734375 z m 0,0"
           id="path152" />
      </g>
    </g>
  </g>
  <g
     fill="#008037"
     fill-opacity="1"
     id="g166"
     transform="matrix(1.3440013,0,0,1.3440013,-105.1642,-167.34984)">
    <g
       transform="translate(102.90501,268.94609)"
       id="g164">
      <g
         id="g162">
        <path
           d="m 12.140625,0 -3.15625,-4.5 c -0.125,0.011719 -0.324219,0.015625 -0.59375,0.015625 H 4.921875 V 0 H 2.0625 v -15.390625 h 6.328125 c 1.34375,0 2.503906,0.226563 3.484375,0.671875 0.988281,0.4375 1.75,1.070312 2.28125,1.890625 0.53125,0.8125 0.796875,1.78125 0.796875,2.90625 0,1.167969 -0.289063,2.167969 -0.859375,3 -0.5625,0.835937 -1.371094,1.453125 -2.421875,1.859375 L 15.21875,0 Z M 12.0625,-9.921875 c 0,-0.976563 -0.324219,-1.726563 -0.96875,-2.25 -0.636719,-0.53125 -1.578125,-0.796875 -2.828125,-0.796875 h -3.34375 v 6.125 h 3.34375 c 1.25,0 2.191406,-0.265625 2.828125,-0.796875 0.644531,-0.53125 0.96875,-1.289063 0.96875,-2.28125 z m 0,0"
           id="path160" />
      </g>
    </g>
  </g>
  <g
     fill="#008037"
     fill-opacity="1"
     id="g174"
     transform="matrix(1.3440013,0,0,1.3440013,-105.1642,-167.34984)">
    <g
       transform="translate(127.05803,268.94609)"
       id="g172">
      <g
         id="g170">
        <path
           d="m 12.96875,-8 c 0.851562,0.28125 1.523438,0.75 2.015625,1.40625 0.5,0.648438 0.75,1.453125 0.75,2.421875 0,1.335937 -0.515625,2.367187 -1.546875,3.09375 C 13.164062,-0.359375 11.675781,0 9.71875,0 H 2.0625 v -15.390625 h 7.21875 c 1.8125,0 3.207031,0.359375 4.1875,1.078125 0.988281,0.710938 1.484375,1.683594 1.484375,2.921875 0,0.761719 -0.179687,1.4375 -0.53125,2.03125 C 14.066406,-8.773438 13.582031,-8.320312 12.96875,-8 Z M 4.921875,-13.140625 V -8.90625 H 8.96875 c 1,0 1.765625,-0.175781 2.296875,-0.53125 0.53125,-0.363281 0.796875,-0.890625 0.796875,-1.578125 0,-0.695313 -0.265625,-1.222656 -0.796875,-1.578125 -0.53125,-0.363281 -1.296875,-0.546875 -2.296875,-0.546875 z M 9.546875,-2.25 c 2.207031,0 3.3125,-0.738281 3.3125,-2.21875 0,-1.476562 -1.105469,-2.21875 -3.3125,-2.21875 h -4.625 V -2.25 Z m 0,0"
           id="path168" />
      </g>
    </g>
  </g>
  <g
     fill="#008037"
     fill-opacity="1"
     id="g182"
     transform="matrix(1.3440013,0,0,1.3440013,-105.1642,-167.34984)">
    <g
       transform="translate(151.87024,268.94609)"
       id="g180">
      <g
         id="g178">
        <path
           d="m 9.25,0.21875 c -1.5625,0 -2.976562,-0.335938 -4.234375,-1.015625 -1.261719,-0.6875 -2.25,-1.632813 -2.96875,-2.84375 C 1.328125,-4.847656 0.96875,-6.195312 0.96875,-7.6875 c 0,-1.5 0.359375,-2.851562 1.078125,-4.0625 0.71875,-1.207031 1.707031,-2.148438 2.96875,-2.828125 1.257813,-0.6875 2.671875,-1.03125 4.234375,-1.03125 1.570312,0 2.988281,0.34375 4.25,1.03125 1.257812,0.679687 2.25,1.621094 2.96875,2.828125 0.71875,1.199219 1.078125,2.554688 1.078125,4.0625 0,1.5 -0.359375,2.855469 -1.078125,4.0625 C 15.75,-2.425781 14.757812,-1.484375 13.5,-0.796875 12.238281,-0.117188 10.820312,0.21875 9.25,0.21875 Z m 0,-2.5 c 1.03125,0 1.953125,-0.226562 2.765625,-0.6875 0.820313,-0.46875 1.46875,-1.113281 1.9375,-1.9375 0.46875,-0.832031 0.703125,-1.757812 0.703125,-2.78125 0,-1.03125 -0.234375,-1.957031 -0.703125,-2.78125 -0.46875,-0.832031 -1.117187,-1.476562 -1.9375,-1.9375 -0.8125,-0.46875 -1.734375,-0.703125 -2.765625,-0.703125 -1.023438,0 -1.945312,0.234375 -2.765625,0.703125 -0.824219,0.460938 -1.46875,1.105469 -1.9375,1.9375 -0.46875,0.824219 -0.703125,1.75 -0.703125,2.78125 0,1.023438 0.234375,1.949219 0.703125,2.78125 0.46875,0.824219 1.113281,1.46875 1.9375,1.9375 0.820313,0.460938 1.742187,0.6875 2.765625,0.6875 z m 0,0"
           id="path176" />
      </g>
    </g>
  </g>
  <g
     fill="#008037"
     fill-opacity="1"
     id="g190"
     transform="matrix(1.3440013,0,0,1.3440013,-105.1642,-167.34984)">
    <g
       transform="translate(178.46226,268.94609)"
       id="g188">
      <g
         id="g186">
        <path
           d="m 12.140625,0 -3.15625,-4.5 c -0.125,0.011719 -0.324219,0.015625 -0.59375,0.015625 H 4.921875 V 0 H 2.0625 v -15.390625 h 6.328125 c 1.34375,0 2.503906,0.226563 3.484375,0.671875 0.988281,0.4375 1.75,1.070312 2.28125,1.890625 0.53125,0.8125 0.796875,1.78125 0.796875,2.90625 0,1.167969 -0.289063,2.167969 -0.859375,3 -0.5625,0.835937 -1.371094,1.453125 -2.421875,1.859375 L 15.21875,0 Z M 12.0625,-9.921875 c 0,-0.976563 -0.324219,-1.726563 -0.96875,-2.25 -0.636719,-0.53125 -1.578125,-0.796875 -2.828125,-0.796875 h -3.34375 v 6.125 h 3.34375 c 1.25,0 2.191406,-0.265625 2.828125,-0.796875 0.644531,-0.53125 0.96875,-1.289063 0.96875,-2.28125 z m 0,0"
           id="path184" />
      </g>
    </g>
  </g>
  <g
     fill="#008037"
     fill-opacity="1"
     id="g198"
     transform="matrix(1.3440013,0,0,1.3440013,-105.1642,-167.34984)">
    <g
       transform="translate(202.61528,268.94609)"
       id="g196">
      <g
         id="g194">
        <path
           d="m 12.96875,-8 c 0.851562,0.28125 1.523438,0.75 2.015625,1.40625 0.5,0.648438 0.75,1.453125 0.75,2.421875 0,1.335937 -0.515625,2.367187 -1.546875,3.09375 C 13.164062,-0.359375 11.675781,0 9.71875,0 H 2.0625 v -15.390625 h 7.21875 c 1.8125,0 3.207031,0.359375 4.1875,1.078125 0.988281,0.710938 1.484375,1.683594 1.484375,2.921875 0,0.761719 -0.179687,1.4375 -0.53125,2.03125 C 14.066406,-8.773438 13.582031,-8.320312 12.96875,-8 Z M 4.921875,-13.140625 V -8.90625 H 8.96875 c 1,0 1.765625,-0.175781 2.296875,-0.53125 0.53125,-0.363281 0.796875,-0.890625 0.796875,-1.578125 0,-0.695313 -0.265625,-1.222656 -0.796875,-1.578125 -0.53125,-0.363281 -1.296875,-0.546875 -2.296875,-0.546875 z M 9.546875,-2.25 c 2.207031,0 3.3125,-0.738281 3.3125,-2.21875 0,-1.476562 -1.105469,-2.21875 -3.3125,-2.21875 h -4.625 V -2.25 Z m 0,0"
           id="path192" />
      </g>
    </g>
  </g>
  <g
     fill="#008037"
     fill-opacity="1"
     id="g206"
     transform="matrix(1.3440013,0,0,1.3440013,-105.1642,-167.34984)">
    <g
       transform="translate(227.4275,268.94609)"
       id="g204">
      <g
         id="g202">
        <path
           d="m 9.25,0.21875 c -1.5625,0 -2.976562,-0.335938 -4.234375,-1.015625 -1.261719,-0.6875 -2.25,-1.632813 -2.96875,-2.84375 C 1.328125,-4.847656 0.96875,-6.195312 0.96875,-7.6875 c 0,-1.5 0.359375,-2.851562 1.078125,-4.0625 0.71875,-1.207031 1.707031,-2.148438 2.96875,-2.828125 1.257813,-0.6875 2.671875,-1.03125 4.234375,-1.03125 1.570312,0 2.988281,0.34375 4.25,1.03125 1.257812,0.679687 2.25,1.621094 2.96875,2.828125 0.71875,1.199219 1.078125,2.554688 1.078125,4.0625 0,1.5 -0.359375,2.855469 -1.078125,4.0625 C 15.75,-2.425781 14.757812,-1.484375 13.5,-0.796875 12.238281,-0.117188 10.820312,0.21875 9.25,0.21875 Z m 0,-2.5 c 1.03125,0 1.953125,-0.226562 2.765625,-0.6875 0.820313,-0.46875 1.46875,-1.113281 1.9375,-1.9375 0.46875,-0.832031 0.703125,-1.757812 0.703125,-2.78125 0,-1.03125 -0.234375,-1.957031 -0.703125,-2.78125 -0.46875,-0.832031 -1.117187,-1.476562 -1.9375,-1.9375 -0.8125,-0.46875 -1.734375,-0.703125 -2.765625,-0.703125 -1.023438,0 -1.945312,0.234375 -2.765625,0.703125 -0.824219,0.460938 -1.46875,1.105469 -1.9375,1.9375 -0.46875,0.824219 -0.703125,1.75 -0.703125,2.78125 0,1.023438 0.234375,1.949219 0.703125,2.78125 0.46875,0.824219 1.113281,1.46875 1.9375,1.9375 0.820313,0.460938 1.742187,0.6875 2.765625,0.6875 z m 0,0"
           id="path200" />
      </g>
    </g>
  </g>
  <g
     fill="#008037"
     fill-opacity="1"
     id="g214"
     transform="matrix(1.3440013,0,0,1.3440013,-105.1642,-167.34984)">
    <g
       transform="translate(254.01953,268.94609)"
       id="g212">
      <g
         id="g210">
        <path
           d="m 9.25,0.21875 c -1.5625,0 -2.976562,-0.335938 -4.234375,-1.015625 -1.261719,-0.6875 -2.25,-1.632813 -2.96875,-2.84375 C 1.328125,-4.847656 0.96875,-6.195312 0.96875,-7.6875 c 0,-1.5 0.359375,-2.851562 1.078125,-4.0625 0.71875,-1.207031 1.707031,-2.148438 2.96875,-2.828125 1.257813,-0.6875 2.671875,-1.03125 4.234375,-1.03125 1.570312,0 2.988281,0.34375 4.25,1.03125 1.257812,0.679687 2.25,1.621094 2.96875,2.828125 0.71875,1.199219 1.078125,2.554688 1.078125,4.0625 0,1.5 -0.359375,2.855469 -1.078125,4.0625 C 15.75,-2.425781 14.757812,-1.484375 13.5,-0.796875 12.238281,-0.117188 10.820312,0.21875 9.25,0.21875 Z m 0,-2.5 c 1.03125,0 1.953125,-0.226562 2.765625,-0.6875 0.820313,-0.46875 1.46875,-1.113281 1.9375,-1.9375 0.46875,-0.832031 0.703125,-1.757812 0.703125,-2.78125 0,-1.03125 -0.234375,-1.957031 -0.703125,-2.78125 -0.46875,-0.832031 -1.117187,-1.476562 -1.9375,-1.9375 -0.8125,-0.46875 -1.734375,-0.703125 -2.765625,-0.703125 -1.023438,0 -1.945312,0.234375 -2.765625,0.703125 -0.824219,0.460938 -1.46875,1.105469 -1.9375,1.9375 -0.46875,0.824219 -0.703125,1.75 -0.703125,2.78125 0,1.023438 0.234375,1.949219 0.703125,2.78125 0.46875,0.824219 1.113281,1.46875 1.9375,1.9375 0.820313,0.460938 1.742187,0.6875 2.765625,0.6875 z m 0,0"
           id="path208" />
      </g>
    </g>
  </g>
  <g
     fill="#008037"
     fill-opacity="1"
     id="g222"
     transform="matrix(1.3440013,0,0,1.3440013,-105.1642,-167.34984)">
    <g
       transform="translate(280.61155,268.94609)"
       id="g220">
      <g
         id="g218">
        <path
           d="m 7.359375,-6.4375 -2.4375,2.5 V 0 H 2.0625 V -15.390625 H 4.921875 V -7.5 l 7.609375,-7.890625 h 3.203125 L 9.28125,-8.515625 16.140625,0 h -3.34375 z m 0,0"
           id="path216" />
      </g>
    </g>
  </g>
  <g
     fill="#579e39"
     fill-opacity="1"
     id="g230"
     transform="matrix(1.3440013,0,0,1.3440013,-105.1642,-167.34984)">
    <g
       transform="translate(86.963049,293.56268)"
       id="g228">
      <g
         id="g226">
        <path
           d="M 6.125,-1.8125 H 2.21875 L 1.4375,0 h -1.5 L 3.46875,-7.8125 H 4.890625 L 8.421875,0 H 6.90625 Z M 5.640625,-2.953125 4.171875,-6.375 2.703125,-2.953125 Z m 0,0"
           id="path224" />
      </g>
    </g>
  </g>
  <g
     fill="#579e39"
     fill-opacity="1"
     id="g238"
     transform="matrix(1.3440013,0,0,1.3440013,-105.1642,-167.34984)">
    <g
       transform="translate(99.436641,293.56268)"
       id="g236">
      <g
         id="g234">
        <path
           d="M 6.171875,0 4.5625,-2.296875 C 4.5,-2.285156 4.398438,-2.28125 4.265625,-2.28125 H 2.5 V 0 H 1.046875 v -7.8125 h 3.21875 c 0.675781,0 1.265625,0.109375 1.765625,0.328125 0.507812,0.21875 0.894531,0.539063 1.15625,0.953125 0.269531,0.417969 0.40625,0.917969 0.40625,1.5 0,0.585938 -0.148438,1.089844 -0.4375,1.515625 C 6.875,-3.085938 6.46875,-2.769531 5.9375,-2.5625 L 7.734375,0 Z m -0.03125,-5.03125 c 0,-0.5 -0.167969,-0.882812 -0.5,-1.15625 -0.324219,-0.269531 -0.804687,-0.40625 -1.4375,-0.40625 H 2.5 v 3.125 h 1.703125 c 0.632813,0 1.113281,-0.132812 1.4375,-0.40625 0.332031,-0.28125 0.5,-0.664062 0.5,-1.15625 z m 0,0"
           id="path232" />
      </g>
    </g>
  </g>
  <g
     fill="#579e39"
     fill-opacity="1"
     id="g246"
     transform="matrix(1.3440013,0,0,1.3440013,-105.1642,-167.34984)">
    <g
       transform="translate(111.70926,293.56268)"
       id="g244">
      <g
         id="g242">
        <path
           d="m 6.59375,-4.0625 c 0.425781,0.136719 0.765625,0.371094 1.015625,0.703125 C 7.867188,-3.023438 8,-2.613281 8,-2.125 8,-1.445312 7.738281,-0.921875 7.21875,-0.546875 6.695312,-0.179688 5.9375,0 4.9375,0 H 1.046875 V -7.8125 H 4.71875 c 0.914062,0 1.625,0.183594 2.125,0.546875 0.5,0.355469 0.75,0.851563 0.75,1.484375 0,0.386719 -0.089844,0.730469 -0.265625,1.03125 C 7.148438,-4.457031 6.90625,-4.226562 6.59375,-4.0625 Z M 2.5,-6.6875 v 2.15625 h 2.0625 c 0.5,0 0.882812,-0.085938 1.15625,-0.265625 C 6,-4.984375 6.140625,-5.25 6.140625,-5.59375 6.140625,-5.957031 6,-6.226562 5.71875,-6.40625 5.445312,-6.59375 5.0625,-6.6875 4.5625,-6.6875 Z m 2.34375,5.546875 c 1.125,0 1.6875,-0.375 1.6875,-1.125 0,-0.75 -0.5625,-1.125 -1.6875,-1.125 H 2.5 v 2.25 z m 0,0"
           id="path240" />
      </g>
    </g>
  </g>
  <g
     fill="#579e39"
     fill-opacity="1"
     id="g254"
     transform="matrix(1.3440013,0,0,1.3440013,-105.1642,-167.34984)">
    <g
       transform="translate(124.31683,293.56268)"
       id="g252">
      <g
         id="g250">
        <path
           d="M 4.703125,0.109375 C 3.910156,0.109375 3.191406,-0.0625 2.546875,-0.40625 1.910156,-0.75 1.40625,-1.226562 1.03125,-1.84375 0.664062,-2.457031 0.484375,-3.144531 0.484375,-3.90625 c 0,-0.757812 0.179687,-1.445312 0.546875,-2.0625 0.375,-0.613281 0.878906,-1.09375 1.515625,-1.4375 0.644531,-0.351562 1.363281,-0.53125 2.15625,-0.53125 0.800781,0 1.519531,0.179688 2.15625,0.53125 0.632813,0.34375 1.132813,0.824219 1.5,1.4375 0.375,0.605469 0.5625,1.292969 0.5625,2.0625 0,0.761719 -0.1875,1.449219 -0.5625,2.0625 -0.367187,0.617188 -0.867187,1.09375 -1.5,1.4375 -0.636719,0.34375 -1.355469,0.515625 -2.15625,0.515625 z m 0,-1.265625 c 0.519531,0 0.988281,-0.113281 1.40625,-0.34375 0.414063,-0.238281 0.742187,-0.566406 0.984375,-0.984375 0.238281,-0.425781 0.359375,-0.898437 0.359375,-1.421875 0,-0.519531 -0.121094,-0.988281 -0.359375,-1.40625 C 6.851562,-5.738281 6.523438,-6.066406 6.109375,-6.296875 5.691406,-6.535156 5.222656,-6.65625 4.703125,-6.65625 c -0.523437,0 -0.992187,0.121094 -1.40625,0.359375 -0.417969,0.230469 -0.746094,0.558594 -0.984375,0.984375 -0.242188,0.417969 -0.359375,0.886719 -0.359375,1.40625 0,0.523438 0.117187,0.996094 0.359375,1.421875 0.238281,0.417969 0.566406,0.746094 0.984375,0.984375 0.414063,0.230469 0.882813,0.34375 1.40625,0.34375 z m 0,0"
           id="path248" />
      </g>
    </g>
  </g>
  <g
     fill="#579e39"
     fill-opacity="1"
     id="g262"
     transform="matrix(1.3440013,0,0,1.3440013,-105.1642,-167.34984)">
    <g
       transform="translate(137.82876,293.56268)"
       id="g260">
      <g
         id="g258">
        <path
           d="M 6.171875,0 4.5625,-2.296875 C 4.5,-2.285156 4.398438,-2.28125 4.265625,-2.28125 H 2.5 V 0 H 1.046875 v -7.8125 h 3.21875 c 0.675781,0 1.265625,0.109375 1.765625,0.328125 0.507812,0.21875 0.894531,0.539063 1.15625,0.953125 0.269531,0.417969 0.40625,0.917969 0.40625,1.5 0,0.585938 -0.148438,1.089844 -0.4375,1.515625 C 6.875,-3.085938 6.46875,-2.769531 5.9375,-2.5625 L 7.734375,0 Z m -0.03125,-5.03125 c 0,-0.5 -0.167969,-0.882812 -0.5,-1.15625 -0.324219,-0.269531 -0.804687,-0.40625 -1.4375,-0.40625 H 2.5 v 3.125 h 1.703125 c 0.632813,0 1.113281,-0.132812 1.4375,-0.40625 0.332031,-0.28125 0.5,-0.664062 0.5,-1.15625 z m 0,0"
           id="path256" />
      </g>
    </g>
  </g>
  <g
     fill="#579e39"
     fill-opacity="1"
     id="g270"
     transform="matrix(1.3440013,0,0,1.3440013,-105.1642,-167.34984)">
    <g
       transform="translate(150.10139,293.56268)"
       id="g268">
      <g
         id="g266">
        <path
           d="M 1.046875,-7.8125 H 2.5 V 0 H 1.046875 Z m 0,0"
           id="path264" />
      </g>
    </g>
  </g>
  <g
     fill="#579e39"
     fill-opacity="1"
     id="g278"
     transform="matrix(1.3440013,0,0,1.3440013,-105.1642,-167.34984)">
    <g
       transform="translate(157.77409,293.56268)"
       id="g276">
      <g
         id="g274">
        <path
           d="m 3.46875,0.109375 c -0.605469,0 -1.1875,-0.0859375 -1.75,-0.25 -0.5625,-0.175781 -1.007812,-0.40625 -1.328125,-0.6875 l 0.5,-1.125 c 0.320313,0.25 0.710937,0.460937 1.171875,0.625 0.46875,0.15625 0.9375,0.234375 1.40625,0.234375 0.582031,0 1.015625,-0.09375 1.296875,-0.28125 0.289063,-0.1875 0.4375,-0.429688 0.4375,-0.734375 0,-0.226563 -0.085937,-0.410156 -0.25,-0.546875 C 4.796875,-2.800781 4.59375,-2.914062 4.34375,-3 4.101562,-3.082031 3.769531,-3.175781 3.34375,-3.28125 2.75,-3.425781 2.269531,-3.566406 1.90625,-3.703125 1.539062,-3.847656 1.222656,-4.070312 0.953125,-4.375 0.691406,-4.675781 0.5625,-5.082031 0.5625,-5.59375 c 0,-0.4375 0.113281,-0.832031 0.34375,-1.1875 C 1.144531,-7.132812 1.5,-7.414062 1.96875,-7.625 c 0.476562,-0.207031 1.054688,-0.3125 1.734375,-0.3125 0.476563,0 0.945313,0.0625 1.40625,0.1875 0.46875,0.117188 0.867187,0.289062 1.203125,0.515625 l -0.453125,1.125 C 5.515625,-6.304688 5.15625,-6.457031 4.78125,-6.5625 4.40625,-6.664062 4.046875,-6.71875 3.703125,-6.71875 c -0.574219,0 -1,0.101562 -1.28125,0.296875 C 2.140625,-6.234375 2,-5.984375 2,-5.671875 c 0,0.230469 0.078125,0.417969 0.234375,0.5625 0.164063,0.136719 0.367187,0.246094 0.609375,0.328125 0.25,0.085938 0.585938,0.179688 1.015625,0.28125 0.570313,0.136719 1.046875,0.277344 1.421875,0.421875 0.375,0.148437 0.691406,0.371094 0.953125,0.671875 0.269531,0.292969 0.40625,0.6875 0.40625,1.1875 0,0.4375 -0.121094,0.835938 -0.359375,1.1875 -0.230469,0.34375 -0.585938,0.621094 -1.0625,0.828125 -0.480469,0.20703125 -1.0625,0.3125 -1.75,0.3125 z m 0,0"
           id="path272" />
      </g>
    </g>
  </g>
  <g
     fill="#579e39"
     fill-opacity="1"
     id="g286"
     transform="matrix(1.3440013,0,0,1.3440013,-105.1642,-167.34984)">
    <g
       transform="translate(168.90789,293.56268)"
       id="g284">
      <g
         id="g282">
        <path
           d="M 2.640625,-6.59375 H 0.046875 V -7.8125 H 6.6875 v 1.21875 H 4.09375 V 0 H 2.640625 Z m 0,0"
           id="path280" />
      </g>
    </g>
  </g>
  <g
     fill="#579e39"
     fill-opacity="1"
     id="g300"
     transform="matrix(1.3440013,0,0,1.3440013,-105.1642,-167.34984)">
    <g
       transform="translate(186.93285,293.56268)"
       id="g298">
      <g
         id="g296">
        <path
           d="M 1.046875,-7.8125 H 4.46875 c 0.832031,0 1.570312,0.164062 2.21875,0.484375 0.644531,0.324219 1.144531,0.78125 1.5,1.375 0.363281,0.585937 0.546875,1.265625 0.546875,2.046875 0,0.773438 -0.183594,1.453125 -0.546875,2.046875 -0.355469,0.59375 -0.855469,1.054687 -1.5,1.375 C 6.039062,-0.160156 5.300781,0 4.46875,0 H 1.046875 Z m 3.359375,6.578125 c 0.570312,0 1.070312,-0.109375 1.5,-0.328125 0.4375,-0.21875 0.769531,-0.53125 1,-0.9375 0.238281,-0.40625 0.359375,-0.875 0.359375,-1.40625 0,-0.539062 -0.121094,-1.015625 -0.359375,-1.421875 -0.230469,-0.40625 -0.5625,-0.71875 -1,-0.9375 -0.429688,-0.21875 -0.929688,-0.328125 -1.5,-0.328125 H 2.5 v 5.359375 z m 0,0"
           id="path294" />
      </g>
    </g>
  </g>
  <g
     fill="#579e39"
     fill-opacity="1"
     id="g308"
     transform="matrix(1.3440013,0,0,1.3440013,-105.1642,-167.34984)">
    <g
       transform="translate(200.26614,293.56268)"
       id="g306">
      <g
         id="g304">
        <path
           d="M 1.046875,-7.8125 H 2.5 V 0 H 1.046875 Z m 0,0"
           id="path302" />
      </g>
    </g>
  </g>
  <g
     fill="#579e39"
     fill-opacity="1"
     id="g316"
     transform="matrix(1.3440013,0,0,1.3440013,-105.1642,-167.34984)">
    <g
       transform="translate(207.93883,293.56268)"
       id="g314">
      <g
         id="g312">
        <path
           d="M 6.171875,0 4.5625,-2.296875 C 4.5,-2.285156 4.398438,-2.28125 4.265625,-2.28125 H 2.5 V 0 H 1.046875 v -7.8125 h 3.21875 c 0.675781,0 1.265625,0.109375 1.765625,0.328125 0.507812,0.21875 0.894531,0.539063 1.15625,0.953125 0.269531,0.417969 0.40625,0.917969 0.40625,1.5 0,0.585938 -0.148438,1.089844 -0.4375,1.515625 C 6.875,-3.085938 6.46875,-2.769531 5.9375,-2.5625 L 7.734375,0 Z m -0.03125,-5.03125 c 0,-0.5 -0.167969,-0.882812 -0.5,-1.15625 -0.324219,-0.269531 -0.804687,-0.40625 -1.4375,-0.40625 H 2.5 v 3.125 h 1.703125 c 0.632813,0 1.113281,-0.132812 1.4375,-0.40625 0.332031,-0.28125 0.5,-0.664062 0.5,-1.15625 z m 0,0"
           id="path310" />
      </g>
    </g>
  </g>
  <g
     fill="#579e39"
     fill-opacity="1"
     id="g324"
     transform="matrix(1.3440013,0,0,1.3440013,-105.1642,-167.34984)">
    <g
       transform="translate(220.21145,293.56268)"
       id="g322">
      <g
         id="g320">
        <path
           d="M 6.921875,-1.21875 V 0 h -5.875 v -7.8125 h 5.71875 v 1.203125 H 2.5 V -4.5625 H 6.28125 V -3.375 H 2.5 v 2.15625 z m 0,0"
           id="path318" />
      </g>
    </g>
  </g>
  <g
     fill="#579e39"
     fill-opacity="1"
     id="g332"
     transform="matrix(1.3440013,0,0,1.3440013,-105.1642,-167.34984)">
    <g
       transform="translate(231.80302,293.56268)"
       id="g330">
      <g
         id="g328">
        <path
           d="M 4.671875,0.109375 C 3.878906,0.109375 3.164062,-0.0625 2.53125,-0.40625 1.894531,-0.75 1.394531,-1.226562 1.03125,-1.84375 0.664062,-2.457031 0.484375,-3.144531 0.484375,-3.90625 c 0,-0.769531 0.179687,-1.457031 0.546875,-2.0625 0.375,-0.613281 0.878906,-1.09375 1.515625,-1.4375 0.632813,-0.351562 1.347656,-0.53125 2.140625,-0.53125 0.632812,0 1.21875,0.117188 1.75,0.34375 0.53125,0.21875 0.976562,0.542969 1.34375,0.96875 L 6.84375,-5.75 C 6.269531,-6.351562 5.570312,-6.65625 4.75,-6.65625 c -0.542969,0 -1.027344,0.121094 -1.453125,0.359375 -0.417969,0.230469 -0.746094,0.554687 -0.984375,0.96875 -0.242188,0.417969 -0.359375,0.890625 -0.359375,1.421875 0,0.53125 0.117187,1.007812 0.359375,1.421875 0.238281,0.417969 0.566406,0.746094 0.984375,0.984375 0.425781,0.230469 0.910156,0.34375 1.453125,0.34375 0.820312,0 1.519531,-0.3125 2.09375,-0.9375 l 0.9375,0.890625 C 7.414062,-0.773438 6.960938,-0.445312 6.421875,-0.21875 5.890625,0 5.304688,0.109375 4.671875,0.109375 Z m 0,0"
           id="path326" />
      </g>
    </g>
  </g>
  <g
     fill="#579e39"
     fill-opacity="1"
     id="g340"
     transform="matrix(1.3440013,0,0,1.3440013,-105.1642,-167.34984)">
    <g
       transform="translate(244.03098,293.56268)"
       id="g338">
      <g
         id="g336">
        <path
           d="M 2.640625,-6.59375 H 0.046875 V -7.8125 H 6.6875 v 1.21875 H 4.09375 V 0 H 2.640625 Z m 0,0"
           id="path334" />
      </g>
    </g>
  </g>
  <g
     fill="#579e39"
     fill-opacity="1"
     id="g348"
     transform="matrix(1.3440013,0,0,1.3440013,-105.1642,-167.34984)">
    <g
       transform="translate(254.86334,293.56268)"
       id="g346">
      <g
         id="g344">
        <path
           d="M 4.703125,0.109375 C 3.910156,0.109375 3.191406,-0.0625 2.546875,-0.40625 1.910156,-0.75 1.40625,-1.226562 1.03125,-1.84375 0.664062,-2.457031 0.484375,-3.144531 0.484375,-3.90625 c 0,-0.757812 0.179687,-1.445312 0.546875,-2.0625 0.375,-0.613281 0.878906,-1.09375 1.515625,-1.4375 0.644531,-0.351562 1.363281,-0.53125 2.15625,-0.53125 0.800781,0 1.519531,0.179688 2.15625,0.53125 0.632813,0.34375 1.132813,0.824219 1.5,1.4375 0.375,0.605469 0.5625,1.292969 0.5625,2.0625 0,0.761719 -0.1875,1.449219 -0.5625,2.0625 -0.367187,0.617188 -0.867187,1.09375 -1.5,1.4375 -0.636719,0.34375 -1.355469,0.515625 -2.15625,0.515625 z m 0,-1.265625 c 0.519531,0 0.988281,-0.113281 1.40625,-0.34375 0.414063,-0.238281 0.742187,-0.566406 0.984375,-0.984375 0.238281,-0.425781 0.359375,-0.898437 0.359375,-1.421875 0,-0.519531 -0.121094,-0.988281 -0.359375,-1.40625 C 6.851562,-5.738281 6.523438,-6.066406 6.109375,-6.296875 5.691406,-6.535156 5.222656,-6.65625 4.703125,-6.65625 c -0.523437,0 -0.992187,0.121094 -1.40625,0.359375 -0.417969,0.230469 -0.746094,0.558594 -0.984375,0.984375 -0.242188,0.417969 -0.359375,0.886719 -0.359375,1.40625 0,0.523438 0.117187,0.996094 0.359375,1.421875 0.238281,0.417969 0.566406,0.746094 0.984375,0.984375 0.414063,0.230469 0.882813,0.34375 1.40625,0.34375 z m 0,0"
           id="path342" />
      </g>
    </g>
  </g>
  <g
     fill="#579e39"
     fill-opacity="1"
     id="g356"
     transform="matrix(1.3440013,0,0,1.3440013,-105.1642,-167.34984)">
    <g
       transform="translate(268.37528,293.56268)"
       id="g354">
      <g
         id="g352">
        <path
           d="M 6.171875,0 4.5625,-2.296875 C 4.5,-2.285156 4.398438,-2.28125 4.265625,-2.28125 H 2.5 V 0 H 1.046875 v -7.8125 h 3.21875 c 0.675781,0 1.265625,0.109375 1.765625,0.328125 0.507812,0.21875 0.894531,0.539063 1.15625,0.953125 0.269531,0.417969 0.40625,0.917969 0.40625,1.5 0,0.585938 -0.148438,1.089844 -0.4375,1.515625 C 6.875,-3.085938 6.46875,-2.769531 5.9375,-2.5625 L 7.734375,0 Z m -0.03125,-5.03125 c 0,-0.5 -0.167969,-0.882812 -0.5,-1.15625 -0.324219,-0.269531 -0.804687,-0.40625 -1.4375,-0.40625 H 2.5 v 3.125 h 1.703125 c 0.632813,0 1.113281,-0.132812 1.4375,-0.40625 0.332031,-0.28125 0.5,-0.664062 0.5,-1.15625 z m 0,0"
           id="path350" />
      </g>
    </g>
  </g>
  <g
     fill="#579e39"
     fill-opacity="1"
     id="g364"
     transform="matrix(1.3440013,0,0,1.3440013,-105.1642,-167.34984)">
    <g
       transform="translate(280.64789,293.56268)"
       id="g362">
      <g
         id="g360">
        <path
           d="M 4.421875,-2.765625 V 0 H 2.96875 V -2.734375 L -0.09375,-7.8125 H 1.453125 L 3.75,-4.015625 6.0625,-7.8125 h 1.421875 z m 0,0"
           id="path358" />
      </g>
    </g>
  </g>
  <path
     d="m 91.76882,152.77757 22.99825,-22.99826 a 58.39093,58.39093 0 0 0 32.55568,9.53416 68.878506,68.878506 0 0 0 49.08155,-21.41698 C 225.96021,88.387097 233.23873,11.726227 233.56429,8.4706574 a 7.7513514,7.7513514 0 0 0 -2.24015,-6.201086 7.8521187,7.8521187 0 0 0 -6.20107,-2.24014002 355.07391,355.07391 0 0 0 -44.18271,7.44905602 7.7513514,7.7513514 0 0 0 -5.53446,4.9608596 l -5.03063,14.21599 -4.17798,-8.41022 a 7.7513514,7.7513514 0 0 0 -9.4489,-3.87568 106.82913,106.82913 0 0 0 -41.04341,22.78897 C 88.02491,64.838487 90.77664,99.680817 103.80666,118.8189 L 80.8084,141.81716 a 7.7513514,7.7513514 0 0 0 10.96042,10.96041 z M 126.6499,48.134327 a 82.939461,82.939461 0 0 1 28.71875,-16.77392 l 9.23961,18.60324 a 7.5963243,7.5963243 0 0 0 7.41804,4.3175 7.7513514,7.7513514 0 0 0 6.82895,-5.15465 l 9.75119,-27.47079 c 11.20071,-2.46493 21.37823,-4.06946 28.36996,-5.01512 -2.84475,20.88214 -11.47201,70.27375 -31.49375,90.295493 -21.61077,21.61077 -46.08178,19.04507 -59.43736,11.62702 l 35.51669,-35.516683 a 7.7513514,7.7513514 0 0 0 -10.96041,-10.96041 l -35.5477,35.485683 C 107.61257,94.208357 105.04688,69.783847 126.6499,48.134327 Z"
     id="path6344"
     style="stroke-width:7.75135" />
</svg>
