<?xml version="1.0" encoding="UTF-8" standalone="no"?>
<svg
   width="271.6286"
   zoomAndPan="magnify"
   viewBox="0 0 203.72145 200.35288"
   height="267.13718"
   preserveAspectRatio="xMidYMid"
   version="1.0"
   id="svg357"
   sodipodi:docname="arborbook.svg"
   inkscape:version="1.2 (dc2aeda, 2022-05-15)"
   xmlns:inkscape="http://www.inkscape.org/namespaces/inkscape"
   xmlns:sodipodi="http://sodipodi.sourceforge.net/DTD/sodipodi-0.dtd"
   xmlns="http://www.w3.org/2000/svg"
   xmlns:svg="http://www.w3.org/2000/svg">
  <sodipodi:namedview
     id="namedview242"
     pagecolor="#505050"
     bordercolor="#eeeeee"
     borderopacity="1"
     inkscape:showpageshadow="0"
     inkscape:pageopacity="0"
     inkscape:pagecheckerboard="0"
     inkscape:deskcolor="#505050"
     showgrid="false"
     inkscape:zoom="0.88344125"
     inkscape:cx="133.56859"
     inkscape:cy="139.79424"
     inkscape:window-width="1309"
     inkscape:window-height="583"
     inkscape:window-x="0"
     inkscape:window-y="25"
     inkscape:window-maximized="0"
     inkscape:current-layer="svg357" />
  <defs
     id="defs137">
    <clipPath
       id="6ce8da653c">
      <path
         d="m 138.9375,84.777344 h 97.5 V 234.64844 h -97.5 z m 0,0"
         clip-rule="nonzero"
         id="path134" />
    </clipPath>
  </defs>
  <g
     clip-path="url(#6ce8da653c)"
     id="g141"
     transform="translate(-85.63462,-84.777345)"
     inkscape:export-filename="arborbook.svg"
     inkscape:export-xdpi="96"
     inkscape:export-ydpi="96">
    <path
       fill="#000000"
       d="m 230.59375,144.00781 -9.89453,17.07422 c -4.75391,8.19922 -13.60938,13.29297 -23.11719,13.29297 h -8.75 v -21.33203 c 1.3125,-1.76563 8.80859,-11.5625 13.88281,-18.17969 0.38282,-0.49609 0.28516,-1.20703 -0.21484,-1.58984 -0.5,-0.38282 -1.21484,-0.28516 -1.59766,0.21484 0,0 -3.53125,4.60156 -7.0625,9.22266 -1.76562,2.30468 -3.53125,4.61718 -4.85547,6.35937 -0.0508,0.0664 -0.10156,0.13281 -0.15234,0.19922 v -19.85547 c 0,-0.625 -0.50781,-1.13672 -1.14062,-1.13672 -0.62891,0 -1.13672,0.51172 -1.13672,1.13672 v 23.09375 c -0.008,0.0547 -0.008,0.10938 -0.008,0.17969 0,0.0195 0.004,0.0352 0.008,0.0547 v 16.67187 c -0.0547,-0.0742 -0.10938,-0.14453 -0.16407,-0.21875 -1.32421,-1.73828 -3.08984,-4.05078 -4.85546,-6.35937 -3.53125,-4.61719 -7.0625,-9.22266 -7.0625,-9.22266 -0.38282,-0.49609 -1.09766,-0.59375 -1.59766,-0.21484 -0.5,0.38281 -0.59766,1.09375 -0.21484,1.59375 5.08593,6.63672 12.61328,16.47265 13.89453,18.1914 v 1.19141 h -8.76172 c -9.50781,0 -18.36328,-5.09375 -23.11719,-13.29297 l -9.89453,-17.07422 c -4.75391,-8.19922 -4.75391,-18.39062 0,-26.58984 l 9.89453,-17.07031 c 4.75391,-8.203129 13.60938,-13.296879 23.11719,-13.296879 h 19.78906 c 9.50781,0 18.36328,5.09375 23.11719,13.296879 l 9.89453,17.07031 c 4.75391,8.19922 4.75391,18.39062 0,26.58984 z M 222.67187,99.210938 C 217.51562,90.308594 207.90234,84.777344 197.58203,84.777344 h -19.78906 c -10.31641,0 -19.9336,5.53125 -25.09375,14.433594 l -9.89063,17.070312 c -5.16015,8.90234 -5.16015,19.96094 0,28.86328 l 9.89063,17.07031 c 5.16015,8.90235 14.77344,14.4336 25.09375,14.4336 h 8.76172 V 232.375 H 174.8125 c -0.63281,0 -1.14063,0.51172 -1.14063,1.13672 0,0.625 0.50782,1.13672 1.14063,1.13672 h 25.76172 c 0.6289,0 1.14062,-0.51172 1.14062,-1.13672 0,-0.625 -0.51172,-1.13672 -1.14062,-1.13672 h -11.74219 v -55.72656 h 8.75 c 10.32031,0 19.93359,-5.53125 25.08984,-14.4336 l 9.89454,-17.07031 c 5.16015,-8.90234 5.16015,-19.96094 0,-28.86328 l -9.89454,-17.070312"
       fill-opacity="1"
       fill-rule="nonzero"
       id="path139" />
  </g>
  <g
     fill="#008037"
     fill-opacity="1"
     id="g149"
     transform="translate(-85.63462,-84.777345)">
    <g
       transform="translate(85.743993,262.07047)"
       id="g147">
      <g
         id="g145">
        <path
           d="M 11.234375,-3.328125 H 4.0625 L 2.640625,0 h -2.75 l 6.46875,-14.34375 h 2.625 L 15.453125,0 h -2.78125 z m -0.875,-2.078125 -2.71875,-6.28125 -2.671875,6.28125 z m 0,0"
           id="path143" />
      </g>
    </g>
  </g>
  <g
     fill="#008037"
     fill-opacity="1"
     id="g157"
     transform="translate(-85.63462,-84.777345)">
    <g
       transform="translate(108.63093,262.07047)"
       id="g155">
      <g
         id="g153">
        <path
           d="M 11.3125,0 8.390625,-4.203125 c -0.125,0.011719 -0.3125,0.015625 -0.5625,0.015625 H 4.59375 V 0 H 1.921875 v -14.34375 h 5.90625 c 1.25,0 2.332031,0.203125 3.25,0.609375 0.925781,0.40625 1.632813,0.996094 2.125,1.765625 0.488281,0.761719 0.734375,1.667969 0.734375,2.71875 0,1.085938 -0.265625,2.015625 -0.796875,2.796875 -0.523437,0.78125 -1.273437,1.359375 -2.25,1.734375 L 14.1875,0 Z M 11.25,-9.25 c 0,-0.914062 -0.304688,-1.617188 -0.90625,-2.109375 C 9.75,-11.847656 8.867188,-12.09375 7.703125,-12.09375 H 4.59375 V -6.375 h 3.109375 c 1.164063,0 2.046875,-0.25 2.640625,-0.75 0.601562,-0.5 0.90625,-1.207031 0.90625,-2.125 z m 0,0"
           id="path151" />
      </g>
    </g>
  </g>
  <g
     fill="#008037"
     fill-opacity="1"
     id="g165"
     transform="translate(-85.63462,-84.777345)">
    <g
       transform="translate(131.14913,262.07047)"
       id="g163">
      <g
         id="g161">
        <path
           d="m 12.09375,-7.46875 c 0.789062,0.261719 1.414062,0.699219 1.875,1.3125 0.46875,0.605469 0.703125,1.359375 0.703125,2.265625 0,1.242187 -0.480469,2.199219 -1.4375,2.875 C 12.285156,-0.335938 10.894531,0 9.0625,0 H 1.921875 V -14.34375 H 8.65625 c 1.6875,0 2.988281,0.335938 3.90625,1 0.914062,0.65625 1.375,1.5625 1.375,2.71875 0,0.71875 -0.167969,1.355469 -0.5,1.90625 -0.324219,0.542969 -0.773438,0.960938 -1.34375,1.25 z m -7.5,-4.796875 v 3.96875 h 3.765625 c 0.9375,0 1.648437,-0.164063 2.140625,-0.5 0.5,-0.34375 0.75,-0.832031 0.75,-1.46875 0,-0.65625 -0.25,-1.148437 -0.75,-1.484375 -0.492188,-0.34375 -1.203125,-0.515625 -2.140625,-0.515625 z M 8.890625,-2.09375 C 10.960938,-2.09375 12,-2.78125 12,-4.15625 12,-5.539062 10.960938,-6.234375 8.890625,-6.234375 H 4.59375 v 4.140625 z m 0,0"
           id="path159" />
      </g>
    </g>
  </g>
  <g
     fill="#008037"
     fill-opacity="1"
     id="g173"
     transform="translate(-85.63462,-84.777345)">
    <g
       transform="translate(154.28189,262.07047)"
       id="g171">
      <g
         id="g169">
        <path
           d="M 8.625,0.203125 C 7.164062,0.203125 5.847656,-0.113281 4.671875,-0.75 3.492188,-1.382812 2.570312,-2.265625 1.90625,-3.390625 c -0.667969,-1.125 -1,-2.382813 -1,-3.78125 0,-1.394531 0.332031,-2.65625 1,-3.78125 0.664062,-1.132813 1.585938,-2.019531 2.765625,-2.65625 1.175781,-0.632813 2.492187,-0.953125 3.953125,-0.953125 1.46875,0 2.785156,0.320312 3.953125,0.953125 1.175781,0.636719 2.097656,1.515625 2.765625,2.640625 0.675781,1.125 1.015625,2.390625 1.015625,3.796875 0,1.40625 -0.339844,2.671875 -1.015625,3.796875 -0.667969,1.117188 -1.589844,1.992188 -2.765625,2.625 C 11.410156,-0.113281 10.09375,0.203125 8.625,0.203125 Z m 0,-2.328125 c 0.957031,0 1.816406,-0.210938 2.578125,-0.640625 0.769531,-0.4375 1.375,-1.039063 1.8125,-1.8125 0.4375,-0.769531 0.65625,-1.632813 0.65625,-2.59375 0,-0.957031 -0.21875,-1.820313 -0.65625,-2.59375 -0.4375,-0.769531 -1.042969,-1.367187 -1.8125,-1.796875 C 10.441406,-12 9.582031,-12.21875 8.625,-12.21875 7.675781,-12.21875 6.816406,-12 6.046875,-11.5625 5.285156,-11.132812 4.6875,-10.535156 4.25,-9.765625 c -0.4375,0.773437 -0.65625,1.636719 -0.65625,2.59375 0,0.960937 0.21875,1.824219 0.65625,2.59375 0.4375,0.773437 1.035156,1.375 1.796875,1.8125 C 6.816406,-2.335938 7.675781,-2.125 8.625,-2.125 Z m 0,0"
           id="path167" />
      </g>
    </g>
  </g>
  <g
     fill="#008037"
     fill-opacity="1"
     id="g181"
     transform="translate(-85.63462,-84.777345)">
    <g
       transform="translate(179.074,262.07047)"
       id="g179">
      <g
         id="g177">
        <path
           d="M 11.3125,0 8.390625,-4.203125 c -0.125,0.011719 -0.3125,0.015625 -0.5625,0.015625 H 4.59375 V 0 H 1.921875 v -14.34375 h 5.90625 c 1.25,0 2.332031,0.203125 3.25,0.609375 0.925781,0.40625 1.632813,0.996094 2.125,1.765625 0.488281,0.761719 0.734375,1.667969 0.734375,2.71875 0,1.085938 -0.265625,2.015625 -0.796875,2.796875 -0.523437,0.78125 -1.273437,1.359375 -2.25,1.734375 L 14.1875,0 Z M 11.25,-9.25 c 0,-0.914062 -0.304688,-1.617188 -0.90625,-2.109375 C 9.75,-11.847656 8.867188,-12.09375 7.703125,-12.09375 H 4.59375 V -6.375 h 3.109375 c 1.164063,0 2.046875,-0.25 2.640625,-0.75 0.601562,-0.5 0.90625,-1.207031 0.90625,-2.125 z m 0,0"
           id="path175" />
      </g>
    </g>
  </g>
  <g
     fill="#008037"
     fill-opacity="1"
     id="g189"
     transform="translate(-85.63462,-84.777345)">
    <g
       transform="translate(201.5922,262.07047)"
       id="g187">
      <g
         id="g185">
        <path
           d="m 12.09375,-7.46875 c 0.789062,0.261719 1.414062,0.699219 1.875,1.3125 0.46875,0.605469 0.703125,1.359375 0.703125,2.265625 0,1.242187 -0.480469,2.199219 -1.4375,2.875 C 12.285156,-0.335938 10.894531,0 9.0625,0 H 1.921875 V -14.34375 H 8.65625 c 1.6875,0 2.988281,0.335938 3.90625,1 0.914062,0.65625 1.375,1.5625 1.375,2.71875 0,0.71875 -0.167969,1.355469 -0.5,1.90625 -0.324219,0.542969 -0.773438,0.960938 -1.34375,1.25 z m -7.5,-4.796875 v 3.96875 h 3.765625 c 0.9375,0 1.648437,-0.164063 2.140625,-0.5 0.5,-0.34375 0.75,-0.832031 0.75,-1.46875 0,-0.65625 -0.25,-1.148437 -0.75,-1.484375 -0.492188,-0.34375 -1.203125,-0.515625 -2.140625,-0.515625 z M 8.890625,-2.09375 C 10.960938,-2.09375 12,-2.78125 12,-4.15625 12,-5.539062 10.960938,-6.234375 8.890625,-6.234375 H 4.59375 v 4.140625 z m 0,0"
           id="path183" />
      </g>
    </g>
  </g>
  <g
     fill="#008037"
     fill-opacity="1"
     id="g197"
     transform="translate(-85.63462,-84.777345)">
    <g
       transform="translate(224.72498,262.07047)"
       id="g195">
      <g
         id="g193">
        <path
           d="M 8.625,0.203125 C 7.164062,0.203125 5.847656,-0.113281 4.671875,-0.75 3.492188,-1.382812 2.570312,-2.265625 1.90625,-3.390625 c -0.667969,-1.125 -1,-2.382813 -1,-3.78125 0,-1.394531 0.332031,-2.65625 1,-3.78125 0.664062,-1.132813 1.585938,-2.019531 2.765625,-2.65625 1.175781,-0.632813 2.492187,-0.953125 3.953125,-0.953125 1.46875,0 2.785156,0.320312 3.953125,0.953125 1.175781,0.636719 2.097656,1.515625 2.765625,2.640625 0.675781,1.125 1.015625,2.390625 1.015625,3.796875 0,1.40625 -0.339844,2.671875 -1.015625,3.796875 -0.667969,1.117188 -1.589844,1.992188 -2.765625,2.625 C 11.410156,-0.113281 10.09375,0.203125 8.625,0.203125 Z m 0,-2.328125 c 0.957031,0 1.816406,-0.210938 2.578125,-0.640625 0.769531,-0.4375 1.375,-1.039063 1.8125,-1.8125 0.4375,-0.769531 0.65625,-1.632813 0.65625,-2.59375 0,-0.957031 -0.21875,-1.820313 -0.65625,-2.59375 -0.4375,-0.769531 -1.042969,-1.367187 -1.8125,-1.796875 C 10.441406,-12 9.582031,-12.21875 8.625,-12.21875 7.675781,-12.21875 6.816406,-12 6.046875,-11.5625 5.285156,-11.132812 4.6875,-10.535156 4.25,-9.765625 c -0.4375,0.773437 -0.65625,1.636719 -0.65625,2.59375 0,0.960937 0.21875,1.824219 0.65625,2.59375 0.4375,0.773437 1.035156,1.375 1.796875,1.8125 C 6.816406,-2.335938 7.675781,-2.125 8.625,-2.125 Z m 0,0"
           id="path191" />
      </g>
    </g>
  </g>
  <g
     fill="#008037"
     fill-opacity="1"
     id="g205"
     transform="translate(-85.63462,-84.777345)">
    <g
       transform="translate(249.51709,262.07047)"
       id="g203">
      <g
         id="g201">
        <path
           d="M 8.625,0.203125 C 7.164062,0.203125 5.847656,-0.113281 4.671875,-0.75 3.492188,-1.382812 2.570312,-2.265625 1.90625,-3.390625 c -0.667969,-1.125 -1,-2.382813 -1,-3.78125 0,-1.394531 0.332031,-2.65625 1,-3.78125 0.664062,-1.132813 1.585938,-2.019531 2.765625,-2.65625 1.175781,-0.632813 2.492187,-0.953125 3.953125,-0.953125 1.46875,0 2.785156,0.320312 3.953125,0.953125 1.175781,0.636719 2.097656,1.515625 2.765625,2.640625 0.675781,1.125 1.015625,2.390625 1.015625,3.796875 0,1.40625 -0.339844,2.671875 -1.015625,3.796875 -0.667969,1.117188 -1.589844,1.992188 -2.765625,2.625 C 11.410156,-0.113281 10.09375,0.203125 8.625,0.203125 Z m 0,-2.328125 c 0.957031,0 1.816406,-0.210938 2.578125,-0.640625 0.769531,-0.4375 1.375,-1.039063 1.8125,-1.8125 0.4375,-0.769531 0.65625,-1.632813 0.65625,-2.59375 0,-0.957031 -0.21875,-1.820313 -0.65625,-2.59375 -0.4375,-0.769531 -1.042969,-1.367187 -1.8125,-1.796875 C 10.441406,-12 9.582031,-12.21875 8.625,-12.21875 7.675781,-12.21875 6.816406,-12 6.046875,-11.5625 5.285156,-11.132812 4.6875,-10.535156 4.25,-9.765625 c -0.4375,0.773437 -0.65625,1.636719 -0.65625,2.59375 0,0.960937 0.21875,1.824219 0.65625,2.59375 0.4375,0.773437 1.035156,1.375 1.796875,1.8125 C 6.816406,-2.335938 7.675781,-2.125 8.625,-2.125 Z m 0,0"
           id="path199" />
      </g>
    </g>
  </g>
  <g
     fill="#008037"
     fill-opacity="1"
     id="g213"
     transform="translate(-85.63462,-84.777345)">
    <g
       transform="translate(274.30921,262.07047)"
       id="g211">
      <g
         id="g209">
        <path
           d="M 6.875,-6 4.59375,-3.671875 V 0 H 1.921875 V -14.34375 H 4.59375 v 7.359375 l 7.09375,-7.359375 h 2.984375 L 8.65625,-7.9375 15.046875,0 H 11.9375 Z m 0,0"
           id="path207" />
      </g>
    </g>
  </g>
  <g
     fill="#579e39"
     fill-opacity="1"
     id="g221"
     transform="translate(-85.63462,-84.777345)">
    <g
       transform="translate(93.768006,285.02086)"
       id="g219">
      <g
         id="g217">
        <path
           d="M 5.703125,-1.6875 H 2.0625 L 1.34375,0 H -0.046875 L 3.21875,-7.28125 H 4.5625 L 7.84375,0 H 6.4375 Z M 5.25,-2.75 3.875,-5.9375 2.515625,-2.75 Z m 0,0"
           id="path215" />
      </g>
    </g>
  </g>
  <g
     fill="#579e39"
     fill-opacity="1"
     id="g229"
     transform="translate(-85.63462,-84.777345)">
    <g
       transform="translate(105.39731,285.02086)"
       id="g227">
      <g
         id="g225">
        <path
           d="M 5.75,0 4.25,-2.140625 C 4.1875,-2.128906 4.09375,-2.125 3.96875,-2.125 H 2.328125 V 0 H 0.984375 V -7.28125 H 3.96875 c 0.632812,0 1.1875,0.105469 1.65625,0.3125 0.46875,0.210938 0.828125,0.507812 1.078125,0.890625 0.25,0.386719 0.375,0.851563 0.375,1.390625 0,0.542969 -0.136719,1.011719 -0.40625,1.40625 C 6.410156,-2.882812 6.03125,-2.585938 5.53125,-2.390625 L 7.203125,0 Z M 5.71875,-4.6875 c 0,-0.46875 -0.15625,-0.828125 -0.46875,-1.078125 -0.304688,-0.25 -0.75,-0.375 -1.34375,-0.375 H 2.328125 v 2.90625 H 3.90625 c 0.59375,0 1.039062,-0.125 1.34375,-0.375 0.3125,-0.257813 0.46875,-0.617187 0.46875,-1.078125 z m 0,0"
           id="path223" />
      </g>
    </g>
  </g>
  <g
     fill="#579e39"
     fill-opacity="1"
     id="g237"
     transform="translate(-85.63462,-84.777345)">
    <g
       transform="translate(116.83924,285.02086)"
       id="g235">
      <g
         id="g233">
        <path
           d="m 6.140625,-3.78125 c 0.40625,0.125 0.722656,0.34375 0.953125,0.65625 0.238281,0.3125 0.359375,0.695312 0.359375,1.140625 0,0.636719 -0.246094,1.125 -0.734375,1.46875 C 6.238281,-0.171875 5.53125,0 4.59375,0 H 0.984375 v -7.28125 h 3.40625 c 0.863281,0 1.523437,0.167969 1.984375,0.5 0.46875,0.335938 0.703125,0.796875 0.703125,1.390625 0,0.367187 -0.085937,0.6875 -0.25,0.96875 -0.167969,0.273437 -0.398437,0.484375 -0.6875,0.640625 z m -3.8125,-2.4375 v 2 H 4.25 c 0.46875,0 0.828125,-0.082031 1.078125,-0.25 0.257813,-0.164062 0.390625,-0.414062 0.390625,-0.75 0,-0.332031 -0.132812,-0.582031 -0.390625,-0.75 -0.25,-0.164062 -0.609375,-0.25 -1.078125,-0.25 z m 2.1875,5.15625 c 1.050781,0 1.578125,-0.347656 1.578125,-1.046875 0,-0.695313 -0.527344,-1.046875 -1.578125,-1.046875 h -2.1875 v 2.09375 z m 0,0"
           id="path231" />
      </g>
    </g>
  </g>
  <g
     fill="#579e39"
     fill-opacity="1"
     id="g245"
     transform="translate(-85.63462,-84.777345)">
    <g
       transform="translate(128.59345,285.02086)"
       id="g243">
      <g
         id="g241">
        <path
           d="m 4.375,0.109375 c -0.742188,0 -1.40625,-0.1601562 -2,-0.484375 C 1.78125,-0.695312 1.3125,-1.144531 0.96875,-1.71875 0.625,-2.289062 0.453125,-2.929688 0.453125,-3.640625 0.453125,-4.347656 0.625,-4.988281 0.96875,-5.5625 1.3125,-6.132812 1.78125,-6.582031 2.375,-6.90625 c 0.59375,-0.320312 1.257812,-0.484375 2,-0.484375 0.75,0 1.421875,0.164063 2.015625,0.484375 0.59375,0.324219 1.054687,0.773438 1.390625,1.34375 C 8.125,-5 8.296875,-4.359375 8.296875,-3.640625 8.296875,-2.929688 8.125,-2.289062 7.78125,-1.71875 7.445312,-1.144531 6.984375,-0.695312 6.390625,-0.375 5.796875,-0.0507812 5.125,0.109375 4.375,0.109375 Z m 0,-1.1875 c 0.488281,0 0.925781,-0.109375 1.3125,-0.328125 C 6.082031,-1.625 6.390625,-1.925781 6.609375,-2.3125 6.828125,-2.707031 6.9375,-3.148438 6.9375,-3.640625 c 0,-0.488281 -0.109375,-0.925781 -0.328125,-1.3125 C 6.390625,-5.347656 6.082031,-5.65625 5.6875,-5.875 5.300781,-6.09375 4.863281,-6.203125 4.375,-6.203125 c -0.480469,0 -0.917969,0.109375 -1.3125,0.328125 -0.386719,0.21875 -0.6875,0.527344 -0.90625,0.921875 -0.21875,0.386719 -0.328125,0.824219 -0.328125,1.3125 0,0.492187 0.109375,0.933594 0.328125,1.328125 0.21875,0.386719 0.519531,0.6875 0.90625,0.90625 0.394531,0.21875 0.832031,0.328125 1.3125,0.328125 z m 0,0"
           id="path239" />
      </g>
    </g>
  </g>
  <g
     fill="#579e39"
     fill-opacity="1"
     id="g253"
     transform="translate(-85.63462,-84.777345)">
    <g
       transform="translate(141.19081,285.02086)"
       id="g251">
      <g
         id="g249">
        <path
           d="M 5.75,0 4.25,-2.140625 C 4.1875,-2.128906 4.09375,-2.125 3.96875,-2.125 H 2.328125 V 0 H 0.984375 V -7.28125 H 3.96875 c 0.632812,0 1.1875,0.105469 1.65625,0.3125 0.46875,0.210938 0.828125,0.507812 1.078125,0.890625 0.25,0.386719 0.375,0.851563 0.375,1.390625 0,0.542969 -0.136719,1.011719 -0.40625,1.40625 C 6.410156,-2.882812 6.03125,-2.585938 5.53125,-2.390625 L 7.203125,0 Z M 5.71875,-4.6875 c 0,-0.46875 -0.15625,-0.828125 -0.46875,-1.078125 -0.304688,-0.25 -0.75,-0.375 -1.34375,-0.375 H 2.328125 v 2.90625 H 3.90625 c 0.59375,0 1.039062,-0.125 1.34375,-0.375 0.3125,-0.257813 0.46875,-0.617187 0.46875,-1.078125 z m 0,0"
           id="path247" />
      </g>
    </g>
  </g>
  <g
     fill="#579e39"
     fill-opacity="1"
     id="g261"
     transform="translate(-85.63462,-84.777345)">
    <g
       transform="translate(152.63275,285.02086)"
       id="g259">
      <g
         id="g257">
        <path
           d="m 0.984375,-7.28125 h 1.34375 V 0 h -1.34375 z m 0,0"
           id="path255" />
      </g>
    </g>
  </g>
  <g
     fill="#579e39"
     fill-opacity="1"
     id="g269"
     transform="translate(-85.63462,-84.777345)">
    <g
       transform="translate(159.78611,285.02086)"
       id="g267">
      <g
         id="g265">
        <path
           d="m 3.234375,0.109375 c -0.5625,0 -1.105469,-0.078125 -1.625,-0.234375 -0.523437,-0.164062 -0.9375,-0.378906 -1.25,-0.640625 l 0.46875,-1.0625 c 0.300781,0.242187 0.664063,0.4375 1.09375,0.59375 0.4375,0.148437 0.875,0.21875 1.3125,0.21875 0.539063,0 0.941406,-0.085937 1.203125,-0.265625 0.269531,-0.175781 0.40625,-0.40625 0.40625,-0.6875 0,-0.207031 -0.074219,-0.378906 -0.21875,-0.515625 C 4.476562,-2.617188 4.289062,-2.722656 4.0625,-2.796875 3.832031,-2.867188 3.519531,-2.957031 3.125,-3.0625 c -0.554688,-0.125 -1,-0.253906 -1.34375,-0.390625 -0.34375,-0.132813 -0.640625,-0.34375 -0.890625,-0.625 -0.25,-0.28125 -0.375,-0.660156 -0.375,-1.140625 0,-0.394531 0.109375,-0.757812 0.328125,-1.09375 0.21875,-0.332031 0.546875,-0.59375 0.984375,-0.78125 0.445313,-0.195312 0.988281,-0.296875 1.625,-0.296875 0.445313,0 0.882813,0.058594 1.3125,0.171875 C 5.191406,-7.113281 5.5625,-6.957031 5.875,-6.75 l -0.421875,1.0625 c -0.324219,-0.1875 -0.65625,-0.328125 -1,-0.421875 -0.34375,-0.101563 -0.683594,-0.15625 -1.015625,-0.15625 -0.53125,0 -0.929688,0.09375 -1.1875,0.28125 -0.261719,0.179687 -0.390625,0.414063 -0.390625,0.703125 0,0.210938 0.070313,0.382812 0.21875,0.515625 0.15625,0.136719 0.347656,0.242187 0.578125,0.3125 0.226562,0.074219 0.539062,0.164063 0.9375,0.265625 0.539062,0.125 0.984375,0.257812 1.328125,0.390625 0.34375,0.136719 0.640625,0.34375 0.890625,0.625 0.25,0.273437 0.375,0.640625 0.375,1.109375 0,0.40625 -0.109375,0.773438 -0.328125,1.09375 -0.21875,0.324219 -0.554687,0.585938 -1,0.78125 -0.449219,0.1953125 -0.992187,0.296875 -1.625,0.296875 z m 0,0"
           id="path263" />
      </g>
    </g>
  </g>
  <g
     fill="#579e39"
     fill-opacity="1"
     id="g277"
     transform="translate(-85.63462,-84.777345)">
    <g
       transform="translate(170.1663,285.02086)"
       id="g275">
      <g
         id="g273">
        <path
           d="M 2.453125,-6.140625 H 0.046875 V -7.28125 H 6.21875 v 1.140625 H 3.8125 V 0 H 2.453125 Z m 0,0"
           id="path271" />
      </g>
    </g>
  </g>
  <g
     fill="#579e39"
     fill-opacity="1"
     id="g291"
     transform="translate(-85.63462,-84.777345)">
    <g
       transform="translate(186.97123,285.02086)"
       id="g289">
      <g
         id="g287">
        <path
           d="M 0.984375,-7.28125 H 4.15625 c 0.78125,0 1.472656,0.152344 2.078125,0.453125 0.601563,0.304687 1.070313,0.730469 1.40625,1.28125 0.332031,0.554687 0.5,1.1875 0.5,1.90625 0,0.71875 -0.167969,1.355469 -0.5,1.90625 -0.335937,0.554687 -0.804687,0.980469 -1.40625,1.28125 C 5.628906,-0.148438 4.9375,0 4.15625,0 H 0.984375 Z m 3.109375,6.140625 c 0.539062,0 1.015625,-0.101563 1.421875,-0.3125 0.40625,-0.207031 0.71875,-0.5 0.9375,-0.875 0.21875,-0.375 0.328125,-0.8125 0.328125,-1.3125 0,-0.5 -0.109375,-0.9375 -0.328125,-1.3125 -0.21875,-0.382813 -0.53125,-0.675781 -0.9375,-0.875 -0.40625,-0.207031 -0.882813,-0.3125 -1.421875,-0.3125 H 2.328125 v 5 z m 0,0"
           id="path285" />
      </g>
    </g>
  </g>
  <g
     fill="#579e39"
     fill-opacity="1"
     id="g299"
     transform="translate(-85.63462,-84.777345)">
    <g
       transform="translate(199.40203,285.02086)"
       id="g297">
      <g
         id="g295">
        <path
           d="m 0.984375,-7.28125 h 1.34375 V 0 h -1.34375 z m 0,0"
           id="path293" />
      </g>
    </g>
  </g>
  <g
     fill="#579e39"
     fill-opacity="1"
     id="g307"
     transform="translate(-85.63462,-84.777345)">
    <g
       transform="translate(206.55539,285.02086)"
       id="g305">
      <g
         id="g303">
        <path
           d="M 5.75,0 4.25,-2.140625 C 4.1875,-2.128906 4.09375,-2.125 3.96875,-2.125 H 2.328125 V 0 H 0.984375 V -7.28125 H 3.96875 c 0.632812,0 1.1875,0.105469 1.65625,0.3125 0.46875,0.210938 0.828125,0.507812 1.078125,0.890625 0.25,0.386719 0.375,0.851563 0.375,1.390625 0,0.542969 -0.136719,1.011719 -0.40625,1.40625 C 6.410156,-2.882812 6.03125,-2.585938 5.53125,-2.390625 L 7.203125,0 Z M 5.71875,-4.6875 c 0,-0.46875 -0.15625,-0.828125 -0.46875,-1.078125 -0.304688,-0.25 -0.75,-0.375 -1.34375,-0.375 H 2.328125 v 2.90625 H 3.90625 c 0.59375,0 1.039062,-0.125 1.34375,-0.375 0.3125,-0.257813 0.46875,-0.617187 0.46875,-1.078125 z m 0,0"
           id="path301" />
      </g>
    </g>
  </g>
  <g
     fill="#579e39"
     fill-opacity="1"
     id="g315"
     transform="translate(-85.63462,-84.777345)">
    <g
       transform="translate(217.99732,285.02086)"
       id="g313">
      <g
         id="g311">
        <path
           d="M 6.4375,-1.140625 V 0 H 0.984375 v -7.28125 h 5.3125 v 1.125 H 2.328125 V -4.25 H 5.84375 v 1.109375 H 2.328125 v 2 z m 0,0"
           id="path309" />
      </g>
    </g>
  </g>
  <g
     fill="#579e39"
     fill-opacity="1"
     id="g323"
     transform="translate(-85.63462,-84.777345)">
    <g
       transform="translate(228.8043,285.02086)"
       id="g321">
      <g
         id="g319">
        <path
           d="m 4.34375,0.109375 c -0.730469,0 -1.390625,-0.1601562 -1.984375,-0.484375 -0.59375,-0.320312 -1.0625,-0.769531 -1.40625,-1.34375 -0.335937,-0.570312 -0.5,-1.210938 -0.5,-1.921875 C 0.453125,-4.359375 0.625,-5 0.96875,-5.5625 1.3125,-6.132812 1.773438,-6.582031 2.359375,-6.90625 c 0.59375,-0.320312 1.257813,-0.484375 2,-0.484375 0.59375,0 1.132813,0.105469 1.625,0.3125 0.5,0.210937 0.921875,0.511719 1.265625,0.90625 L 6.375,-5.34375 C 5.84375,-5.914062 5.191406,-6.203125 4.421875,-6.203125 c -0.5,0 -0.949219,0.109375 -1.34375,0.328125 -0.398437,0.21875 -0.703125,0.527344 -0.921875,0.921875 -0.21875,0.386719 -0.328125,0.824219 -0.328125,1.3125 0,0.492187 0.109375,0.933594 0.328125,1.328125 0.21875,0.386719 0.523438,0.6875 0.921875,0.90625 0.394531,0.21875 0.84375,0.328125 1.34375,0.328125 0.769531,0 1.421875,-0.289063 1.953125,-0.875 l 0.875,0.84375 c -0.34375,0.398437 -0.765625,0.699219 -1.265625,0.90625 -0.492187,0.20703125 -1.039063,0.3125 -1.640625,0.3125 z m 0,0"
           id="path317" />
      </g>
    </g>
  </g>
  <g
     fill="#579e39"
     fill-opacity="1"
     id="g331"
     transform="translate(-85.63462,-84.777345)">
    <g
       transform="translate(240.2046,285.02086)"
       id="g329">
      <g
         id="g327">
        <path
           d="M 2.453125,-6.140625 H 0.046875 V -7.28125 H 6.21875 v 1.140625 H 3.8125 V 0 H 2.453125 Z m 0,0"
           id="path325" />
      </g>
    </g>
  </g>
  <g
     fill="#579e39"
     fill-opacity="1"
     id="g339"
     transform="translate(-85.63462,-84.777345)">
    <g
       transform="translate(250.30376,285.02086)"
       id="g337">
      <g
         id="g335">
        <path
           d="m 4.375,0.109375 c -0.742188,0 -1.40625,-0.1601562 -2,-0.484375 C 1.78125,-0.695312 1.3125,-1.144531 0.96875,-1.71875 0.625,-2.289062 0.453125,-2.929688 0.453125,-3.640625 0.453125,-4.347656 0.625,-4.988281 0.96875,-5.5625 1.3125,-6.132812 1.78125,-6.582031 2.375,-6.90625 c 0.59375,-0.320312 1.257812,-0.484375 2,-0.484375 0.75,0 1.421875,0.164063 2.015625,0.484375 0.59375,0.324219 1.054687,0.773438 1.390625,1.34375 C 8.125,-5 8.296875,-4.359375 8.296875,-3.640625 8.296875,-2.929688 8.125,-2.289062 7.78125,-1.71875 7.445312,-1.144531 6.984375,-0.695312 6.390625,-0.375 5.796875,-0.0507812 5.125,0.109375 4.375,0.109375 Z m 0,-1.1875 c 0.488281,0 0.925781,-0.109375 1.3125,-0.328125 C 6.082031,-1.625 6.390625,-1.925781 6.609375,-2.3125 6.828125,-2.707031 6.9375,-3.148438 6.9375,-3.640625 c 0,-0.488281 -0.109375,-0.925781 -0.328125,-1.3125 C 6.390625,-5.347656 6.082031,-5.65625 5.6875,-5.875 5.300781,-6.09375 4.863281,-6.203125 4.375,-6.203125 c -0.480469,0 -0.917969,0.109375 -1.3125,0.328125 -0.386719,0.21875 -0.6875,0.527344 -0.90625,0.921875 -0.21875,0.386719 -0.328125,0.824219 -0.328125,1.3125 0,0.492187 0.109375,0.933594 0.328125,1.328125 0.21875,0.386719 0.519531,0.6875 0.90625,0.90625 0.394531,0.21875 0.832031,0.328125 1.3125,0.328125 z m 0,0"
           id="path333" />
      </g>
    </g>
  </g>
  <g
     fill="#579e39"
     fill-opacity="1"
     id="g347"
     transform="translate(-85.63462,-84.777345)">
    <g
       transform="translate(262.90111,285.02086)"
       id="g345">
      <g
         id="g343">
        <path
           d="M 5.75,0 4.25,-2.140625 C 4.1875,-2.128906 4.09375,-2.125 3.96875,-2.125 H 2.328125 V 0 H 0.984375 V -7.28125 H 3.96875 c 0.632812,0 1.1875,0.105469 1.65625,0.3125 0.46875,0.210938 0.828125,0.507812 1.078125,0.890625 0.25,0.386719 0.375,0.851563 0.375,1.390625 0,0.542969 -0.136719,1.011719 -0.40625,1.40625 C 6.410156,-2.882812 6.03125,-2.585938 5.53125,-2.390625 L 7.203125,0 Z M 5.71875,-4.6875 c 0,-0.46875 -0.15625,-0.828125 -0.46875,-1.078125 -0.304688,-0.25 -0.75,-0.375 -1.34375,-0.375 H 2.328125 v 2.90625 H 3.90625 c 0.59375,0 1.039062,-0.125 1.34375,-0.375 0.3125,-0.257813 0.46875,-0.617187 0.46875,-1.078125 z m 0,0"
           id="path341" />
      </g>
    </g>
  </g>
  <g
     fill="#579e39"
     fill-opacity="1"
     id="g355"
     transform="translate(-85.63462,-84.777345)">
    <g
       transform="translate(274.34305,285.02086)"
       id="g353">
      <g
         id="g351">
        <path
           d="M 4.125,-2.578125 V 0 H 2.765625 V -2.546875 L -0.09375,-7.28125 h 1.453125 l 2.125,3.546875 2.15625,-3.546875 H 6.96875 Z m 0,0"
           id="path349" />
      </g>
    </g>
  </g>
</svg>
